<svg width="92" height="92" viewBox="0 0 92 92" fill="none" xmlns="http://www.w3.org/2000/svg">
<g clip-path="url(#clip0_874:12416)">
<path d="M41.7586 49.1627V53.984C41.7586 54.5694 41.2811 55.0161 40.7265 55.0161C40.172 55.0161 39.7099 54.554 39.7099 53.984V49.1627C39.7099 47.7764 38.57 46.652 37.1683 46.652C35.782 46.652 34.6576 47.7764 34.6576 49.1627V53.984C34.6576 54.5694 34.1954 55.0161 33.6255 55.0161C33.071 55.0161 32.6089 54.554 32.6089 53.984V40.4597C32.6089 39.9052 33.071 39.4431 33.6255 39.4431C34.2109 39.4431 34.6576 39.9052 34.6576 40.4597V45.3427C35.3815 44.8652 36.2441 44.5879 37.1683 44.5879C39.6945 44.6033 41.7586 46.652 41.7586 49.1627Z" fill="#FA8B00"/>
<path d="M53.7269 49.8867V53.9532C53.7269 54.5539 53.2956 54.9852 52.6949 54.9852C52.279 54.9852 51.6936 54.5539 51.6936 53.9532C50.8002 54.708 49.799 54.9852 48.6129 54.9852C45.6863 54.9852 43.3604 52.7979 43.3604 49.8713C43.3604 46.9446 45.6863 44.6187 48.6129 44.6187C51.5396 44.6341 53.7269 46.96 53.7269 49.8867ZM51.6936 49.8867C51.6936 48.1461 50.3689 46.6673 48.6129 46.6673C46.8724 46.6673 45.3936 48.1461 45.3936 49.8867C45.3936 51.6273 46.8724 52.9674 48.6129 52.9674C50.3535 52.9674 51.6936 51.6427 51.6936 49.8867Z" fill="#FA8B00"/>
<path d="M64.7254 49.1627V53.984C64.7254 54.5694 64.2479 55.0161 63.6933 55.0161C63.1388 55.0161 62.6767 54.554 62.6767 53.984V49.1627C62.6767 47.7764 61.5369 46.652 60.1351 46.652C58.7488 46.652 57.6244 47.7764 57.6244 49.1627V53.984C57.6244 54.5694 57.1622 55.0161 56.5923 55.0161C56.0378 55.0161 55.5757 54.554 55.5757 53.984V40.4597C55.5757 39.9052 56.0378 39.4431 56.5923 39.4431C57.1777 39.4431 57.6244 39.9052 57.6244 40.4597V45.3427C58.3483 44.8652 59.2109 44.5879 60.1351 44.5879C62.6613 44.6033 64.7254 46.652 64.7254 49.1627Z" fill="#FA8B00"/>
<path d="M66.3423 49.8099C66.3423 46.9295 68.6836 44.5881 71.5641 44.5881C74.4445 44.5881 76.7859 46.9141 76.7859 49.8099C76.7859 52.675 74.4599 55.0317 71.5641 55.0317C68.6836 55.0317 66.3423 52.675 66.3423 49.8099ZM68.391 49.8099C68.391 51.5351 69.8081 52.9676 71.5487 52.9676C73.2893 52.9676 74.7064 51.5351 74.7064 49.8099C74.7064 48.0693 73.2893 46.6522 71.5487 46.6522C69.8081 46.6522 68.391 48.0693 68.391 49.8099Z" fill="#FA8B00"/>
<path d="M91.9428 46.0361L88.8313 54.354C88.6619 54.7545 88.2768 55.0472 87.8301 55.0472C87.3834 55.0472 86.9983 54.7699 86.8597 54.354L84.7032 48.5931L82.5467 54.3386C82.3773 54.7391 81.9922 55.0318 81.5455 55.0318C81.1142 55.0318 80.7137 54.7545 80.5751 54.3386L77.4636 46.0207C77.2633 45.4815 77.5252 44.8808 78.0643 44.696C78.588 44.4957 79.1888 44.7576 79.3736 45.2967L81.5609 51.0884L83.7174 45.3275C83.8252 45.0348 84.0255 44.7884 84.3335 44.6806C84.4413 44.6344 84.5338 44.6189 84.6416 44.6189H84.6878H84.7032H84.7494H84.7648H84.7802H84.7956H84.811H84.8572C84.8572 44.6189 84.8572 44.6344 84.8726 44.6344H84.888H84.9035C84.9189 44.6344 84.9189 44.6344 84.9497 44.6498H84.9959C85.0113 44.6652 85.0113 44.6652 85.0421 44.6652C85.3347 44.773 85.5658 45.0194 85.6428 45.3121L87.7993 51.073L89.9866 45.2813C90.1868 44.7422 90.7722 44.4649 91.3113 44.6806C91.8504 44.8808 92.1277 45.497 91.9428 46.0361Z" fill="#FA8B00"/>
<path d="M20.4713 41.9693C23.629 40.3057 26.1244 40.5213 27.5415 41.2607C27.4953 41.2299 27.4645 41.1991 27.4183 41.1837L17.3906 35.8079C15.4035 34.745 13.0314 34.745 11.0597 35.8079L1.06284 41.1683C-0.354281 41.9231 -0.354281 43.9717 1.06284 44.7265L8.24088 48.5466C8.24088 48.5466 17.2981 43.6329 20.4713 41.9693Z" fill="url(#paint0_linear_874:12416)"/>
<path d="M13.5703 45.6201C13.5703 45.6201 17.298 43.633 20.4711 41.9694C23.6442 40.3058 26.1396 40.5215 27.5567 41.2608C28.8814 41.954 28.7428 44.0335 27.4181 44.7266C26.001 45.466 20.2862 48.5159 20.2862 48.5159C20.2862 48.5159 16.3275 46.4056 15.542 45.9743C14.741 45.543 14.3713 45.3274 13.5703 45.6201Z" fill="#00AAA5"/>
<path d="M23.9065 50.4718L20.2866 48.531L15.1573 51.2574C15.1573 51.2574 12.8005 52.5821 11.0445 53.5217C9.28854 54.4614 5.86896 53.6758 4.66748 53.0134L10.9213 56.3406C13.0162 57.4496 15.5424 57.4496 17.6372 56.3406L23.8911 53.0134C24.9077 52.4589 24.9077 51.011 23.9065 50.4718Z" fill="url(#paint1_linear_874:12416)"/>
<path d="M11.0446 53.5066C9.28861 54.4462 5.86903 53.6606 4.66755 52.9983C3.45067 52.3359 3.69713 50.9958 4.66755 50.4721C5.63797 49.9484 8.24117 48.5466 8.24117 48.5466C8.24117 48.5466 12.7082 50.9034 13.3551 51.2422C13.9867 51.5811 14.649 51.5195 15.1573 51.2422C15.1573 51.2422 12.8006 52.567 11.0446 53.5066Z" fill="#FFB115"/>
<path d="M63.4322 39.7052L62.7236 39.7977L63.5708 35.115H64.2794L63.4322 39.7052Z" fill="#898989"/>
<path d="M67.9459 42.4778C67.8997 42.4932 67.8535 42.524 67.7919 42.524H66.6982V41.8308H67.9151V41.877L67.9459 42.4778Z" fill="#898989"/>
<path d="M65.5579 41.0609V41.9234L62.7236 39.7978L62.9085 39.0276L65.5579 41.0609Z" fill="#898989"/>
<path d="M65.558 37.0402V37.0557L65.5426 37.1019V37.1173L65.5272 37.1943L65.481 37.4407L64.8494 40.9527L64.1871 40.6755L64.7724 37.4407H62.4927V36.7322H65.2499C65.2961 36.7322 65.3269 36.7476 65.3731 36.7476C65.3885 36.763 65.4039 36.763 65.4193 36.7784C65.4347 36.7784 65.4347 36.7938 65.4501 36.7938C65.4656 36.8092 65.481 36.8246 65.4964 36.84C65.4964 36.84 65.5118 36.8554 65.5118 36.8708C65.5272 36.8862 65.5272 36.9016 65.5426 36.917C65.558 36.9632 65.558 36.994 65.558 37.0402Z" fill="#898989"/>
<path d="M69.8247 38.3191H65.8813V39.0277H69.8247V38.3191Z" fill="#898989"/>
<path d="M64.7873 40.7833L63.5858 42.1696H62.6616L64.1866 40.3982" fill="#898989"/>
<path d="M69.6709 35.8081C69.6709 35.6386 69.5322 35.5 69.3628 35.5H69.3474H69.3628H66.2051V36.2086H68.6234L67.5144 37.5333V42.524H67.9457C68.1151 42.4932 68.2383 42.3546 68.2383 42.1851V37.6257L69.1317 36.5628L69.6093 36.0083C69.6093 36.0083 69.6401 35.9621 69.6401 35.9775C69.6555 35.9313 69.6709 35.8697 69.6709 35.8081ZM69.5785 36.0237C69.5785 36.0391 69.5785 36.0391 69.5785 36.0237V36.0237Z" fill="#898989"/>
<path d="M86.9385 37.2713H86.2299V38.9349V42.5547H85.4905V39.32V37.2713H84.4585V36.5319H85.5059V35.1302H86.2453V36.5473H86.9539V37.2713H86.9385ZM88.6945 36.8554L87.8627 38.3495H86.9847L87.8165 36.8554H88.6945ZM91.4055 35.6231V36.3779H87.2465V35.6231H88.9101V34.9146H89.6649V35.6231H91.4055ZM91.6057 42.4777H90.5121L89.3414 41.1992L88.2478 42.4777H87.2465L88.8793 40.583L87.647 38.7808H88.525L89.3414 40.0131L90.0654 38.7808H90.9126L89.8189 40.5984L91.6057 42.4777ZM90.127 36.8554H91.005L91.8368 38.3495H90.9742L90.127 36.8554Z" fill="#898989"/>
<path d="M85.0742 40.4598H84.3965L85.4901 37.3945H86.1679L85.0742 40.4598Z" fill="#898989"/>
<path d="M86.6766 39.7975H87.4468L86.5226 38.1956H85.7524L86.6766 39.7975Z" fill="#898989"/>
<path d="M80.0678 36.0544H78.7739V36.5628H80.0678V36.0544Z" fill="#898989"/>
<path d="M80.0678 37.0095H78.7739V37.5178H80.0678V37.0095Z" fill="#898989"/>
<path d="M80.4834 35.5155V35.5309V35.5463L80.2986 37.8568L80.2832 38.1187H79.6054L79.7903 35.7619H78.481V35.115H80.1291C80.314 35.115 80.4834 35.3306 80.4834 35.5155Z" fill="#898989"/>
<path d="M77.4486 41.9231H76.0161V42.5546H77.4486V41.9231Z" fill="#898989"/>
<path d="M75.617 36.0542H74.4155V36.5625H75.617V36.0542Z" fill="#898989"/>
<path d="M75.617 37.0095H74.4155V37.5178H75.617V37.0095Z" fill="#898989"/>
<path d="M74.7999 38.0416H74.1222L73.8911 35.3459H74.5689L74.7999 38.0416Z" fill="#898989"/>
<path d="M74.0297 35.9619L73.8911 35.3458L75.7087 34.7759V35.4536L74.0297 35.9619Z" fill="#898989"/>
<path d="M73.3779 37.9245V39.2954H74.0403V37.9245H73.3779Z" fill="#898989"/>
<path d="M78.2658 35.4384L77.3724 36.3318C77.357 36.3472 77.3416 36.3626 77.3262 36.378C77.28 36.4242 77.2183 36.4396 77.1413 36.4396C77.0797 36.4396 77.0027 36.4088 76.9565 36.378C76.9411 36.3626 76.9257 36.3472 76.9103 36.3318L76.0015 35.4384C76.0939 35.1765 76.4174 35.0071 76.7254 35.2844L77.1259 35.6695L77.5572 35.2382C77.8345 34.9917 78.2658 35.1611 78.2658 35.4384Z" fill="#898989"/>
<path d="M78.2658 36.7323L77.3724 37.6257C77.357 37.6411 77.3416 37.6565 77.3262 37.6719C77.28 37.7181 77.2183 37.7335 77.1413 37.7335C77.0797 37.7335 77.0027 37.7027 76.9565 37.6719C76.9411 37.6565 76.9257 37.6411 76.9103 37.6257L76.0015 36.7323C76.0939 36.4705 76.4174 36.301 76.7254 36.5783L77.1259 36.9634L77.5572 36.5321C77.8345 36.301 78.2658 36.4705 78.2658 36.7323Z" fill="#898989"/>
<path d="M80.4214 40.2903H73.9365V40.9218H80.4214V40.2903Z" fill="#898989"/>
<path d="M80.7147 37.9644C80.6839 37.949 80.6377 37.9336 80.5915 37.9182C80.5453 37.9028 80.4683 37.9028 80.4683 37.9028H73.814V38.5806H79.8213H80.2218V39.2891H80.8842V38.2879C80.8996 38.1493 80.8226 38.0261 80.7147 37.9644Z" fill="#898989"/>
<path d="M78.6045 38.9351H75.4468V39.4742H77.6957L76.8639 39.9979V42.5549H77.5725V40.1981L78.7585 39.3664L78.8047 39.3201C78.8355 39.2739 78.8509 39.2277 78.8509 39.1661C78.8509 39.0429 78.7431 38.9351 78.6045 38.9351Z" fill="#898989"/>
</g>
<defs>
<linearGradient id="paint0_linear_874:12416" x1="19.5034" y1="38.3036" x2="3.17893" y2="47.4261" gradientUnits="userSpaceOnUse">
<stop stop-color="#00E6AA"/>
<stop offset="0.0808518" stop-color="#00E1A9"/>
<stop offset="0.612" stop-color="#00C8A5"/>
<stop offset="0.9297" stop-color="#00BEA4"/>
</linearGradient>
<linearGradient id="paint1_linear_874:12416" x1="9.99426" y1="55.4108" x2="21.2774" y2="49.0491" gradientUnits="userSpaceOnUse">
<stop stop-color="#E66E00"/>
<stop offset="0.781" stop-color="#FA8B00"/>
</linearGradient>
<clipPath id="clip0_874:12416">
<rect width="92" height="92" fill="white"/>
</clipPath>
</defs>
</svg>
