<svg width="92" height="92" viewBox="0 0 92 92" fill="none" xmlns="http://www.w3.org/2000/svg">
<g clip-path="url(#clip0_874:12412)">
<path d="M83.6714 39.1781C81.2601 39.7787 79.962 40.8132 79.3051 42.6867C78.9047 44.4134 78.8081 46.1967 79.02 47.9565C79.491 51.1989 81.7311 52.9307 85.4552 52.9307C89.1793 52.9307 91.4195 51.1971 91.8905 47.9565C92.1024 46.1967 92.0058 44.4134 91.6053 42.6867C91.333 41.9222 90.8872 41.2314 90.3029 40.6688C89.7186 40.1061 89.0118 39.687 88.2382 39.4444C86.7343 39.1547 85.1987 39.0652 83.6714 39.1781ZM87.2244 41.6652C87.9267 41.9529 88.4933 42.4977 88.8086 43.1888C89.053 44.1897 89.1153 45.2266 88.9926 46.2497C88.9493 48.6538 88.9493 48.6953 88.5501 49.2544C88.2763 49.6129 87.9373 49.9164 87.551 50.1488C87.0229 50.4427 86.78 50.4841 85.435 50.4841C84.0081 50.4841 83.894 50.4565 83.2381 50.065C82.8123 49.8145 82.4583 49.4582 82.2105 49.0306C81.9106 48.4576 81.882 48.2614 81.882 46.0259C81.882 43.8151 81.9106 43.5802 82.2105 43.0064C82.4296 42.6145 82.7303 42.2744 83.0922 42.0092C83.4541 41.7439 83.8688 41.5597 84.308 41.469C85.2825 41.3257 86.2762 41.3929 87.2225 41.6661L87.2244 41.6652Z" fill="black"/>
<path d="M20.3324 39.3364C19.648 39.4654 19.3205 40.6647 19.7906 41.3362C20.012 41.5489 20.29 41.6931 20.5913 41.7514C20.8925 41.8098 21.2042 41.7798 21.4889 41.665C21.743 41.6134 21.9677 41.4659 22.1165 41.2532C22.2652 41.0405 22.3268 40.7787 22.2883 40.5219C22.3272 40.2771 22.2744 40.0265 22.1401 39.8183C22.0058 39.61 21.7995 39.4588 21.5606 39.3935C21.1694 39.2361 20.7365 39.216 20.3324 39.3364Z" fill="#178FAC"/>
<path d="M33.886 39.4885C33.0482 39.6853 32.288 40.1279 31.7029 40.7597C31.1739 41.4013 30.8419 42.1826 30.747 43.0091C30.8205 43.9122 31.2214 44.7571 31.874 45.3847C32.5299 46.0295 33.0865 46.293 35.5539 47.2012C37.0664 47.7603 37.5945 48.2209 37.5945 49.0177C37.5945 50.5836 35.1105 51.1971 32.7434 50.205C31.0165 49.4921 30.46 49.6044 30.46 50.638C30.46 51.4762 30.6881 51.7977 31.5299 52.1753C34.1555 53.3489 37.8364 52.9859 39.4629 51.3933C39.9938 50.8864 40.3543 50.227 40.4949 49.5061C40.6355 48.7852 40.5491 48.0385 40.2477 47.3688C39.7058 46.3492 38.9064 45.8315 36.4813 44.9518C34.6836 44.295 34.0838 43.9597 33.7986 43.4006C32.9421 41.7794 35.611 40.7183 37.979 41.7518C38.7923 42.1009 39.3489 42.1433 39.6773 41.878C40.0343 41.5841 39.8769 40.3968 39.4344 40.0615C38.4804 39.3347 35.3552 39.0132 33.886 39.4885Z" fill="black"/>
<path d="M49.1126 39.4461L48.7842 39.67V52.61L49.1411 52.7639C49.7654 52.9831 50.4465 52.9782 51.0676 52.75L51.4245 52.5658L51.4963 49.5473L51.568 46.5149L54.0649 49.5758C56.8184 52.9573 56.8902 53.0135 58.3171 52.902C59.1451 52.832 59.513 52.5667 59.387 52.1191C59.3585 51.9929 58.1745 50.4979 56.7614 48.803C55.363 47.1118 54.2075 45.6711 54.2075 45.603C54.9162 44.7582 55.6685 43.9511 56.4614 43.185C58.6298 40.9632 59.4864 39.9988 59.4864 39.7768C59.443 39.6498 59.3637 39.5381 59.2582 39.4553C58.4377 39.1741 57.5503 39.1545 56.7181 39.3991C55.7466 40.2417 54.836 41.1523 53.9931 42.1239C52.695 43.5212 51.5671 44.6809 51.4963 44.6809C51.3408 43.8567 51.2928 43.0157 51.3537 42.1791C51.3537 39.3282 51.3684 39.3558 50.1697 39.272C49.8079 39.1979 49.4316 39.2599 49.1126 39.4461Z" fill="black"/>
<path d="M68.1849 39.529L67.8169 39.8054V46.1492C67.8169 51.1657 67.8601 52.505 68.0009 52.6192C68.2835 52.7712 68.5958 52.8599 68.916 52.8791C69.2362 52.8984 69.5568 52.8477 69.8556 52.7307L70.3837 52.5206V39.809L70.0157 39.5327C69.75 39.3402 69.4301 39.2373 69.1021 39.2389C68.7733 39.2354 68.452 39.337 68.1849 39.529Z" fill="black"/>
<path d="M0.274346 39.5166C0.0903485 39.628 0.0599896 40.5225 0.0176702 45.8862C-0.0255692 53.1631 -0.0964091 52.7864 1.25873 52.7864C2.54671 52.7864 2.55683 52.7449 2.55683 49.8673C2.51903 48.9707 2.56677 48.0725 2.69943 47.185C2.84203 46.9335 3.02787 46.9197 5.25331 46.9197C7.30764 46.9197 7.69312 46.9473 7.85043 47.1574C8.00775 47.325 8.06479 48.0232 8.09331 49.9088C8.13655 52.814 8.13655 52.7864 9.34909 52.7864C10.6187 52.7864 10.5451 53.2193 10.5451 46.0815C10.5451 40.5777 10.5166 39.7957 10.3169 39.6004C9.99914 39.4595 9.65655 39.3833 9.30909 39.3762C8.96163 39.3691 8.61622 39.4312 8.29295 39.559C8.1368 40.3544 8.06984 41.1648 8.09331 41.9751C8.06479 43.623 7.99303 44.2779 7.85043 44.4474C7.69312 44.6565 7.30856 44.6851 5.25331 44.6851C3.02787 44.6851 2.84203 44.6712 2.69943 44.4198C2.56922 43.6118 2.52145 42.7927 2.55683 41.9751C2.55683 39.4189 2.54212 39.3766 1.30106 39.3766C0.953321 39.3637 0.605974 39.4111 0.274346 39.5166Z" fill="#178FAC"/>
<path d="M19.8067 42.731C19.6071 42.9152 19.5786 43.5738 19.5786 47.7171C19.5786 53.1886 19.4783 52.8027 20.9586 52.8027C22.3385 52.8027 22.2852 53.0458 22.2852 47.6443C22.2852 42.2152 22.3569 42.5016 20.8868 42.5016C20.2916 42.5026 19.9631 42.5735 19.8067 42.731Z" fill="#178FAC"/>
</g>
<defs>
<clipPath id="clip0_874:12412">
<rect width="92" height="92" fill="white"/>
</clipPath>
</defs>
</svg>
