<svg width="600" height="314" viewBox="0 0 600 314" fill="none" xmlns="http://www.w3.org/2000/svg">
<g clip-path="url(#clip0)">
<rect y="-1" width="600" height="315" fill="#EEF7F9"/>
<rect x="564" y="89" width="72" height="10" rx="5" fill="#C4DFED"/>
<rect x="511" y="149" width="56" height="6" rx="3" fill="#E8E8E8"/>
<rect x="44" y="198" width="20" height="2" rx="1" fill="#D4E8F3"/>
<rect x="567" y="199" width="20" height="2" rx="1" fill="#EAEAEA"/>
<rect x="417" y="113" width="20" height="2" rx="1" fill="#EBF3F4"/>
<rect x="-32" y="219" width="56" height="8" rx="4" fill="#EAEAEA"/>
<rect x="15" y="165" width="40" height="6" rx="3" fill="#C1D7E3"/>
<path d="M194.5 112.5C108.5 130.5 52.3333 92.3333 35 71V-47H694.5V45.5C662 35 576.3 14.2 493.5 15C390 16 302 90 194.5 112.5Z" fill="#71A2BD"/>
<path d="M473.5 228C559.565 219.997 618.654 252.05 636 261.535V314H-24V243.084C8.52466 247.752 89.1372 272.856 172 272.5C275.578 272.055 365.918 238.004 473.5 228Z" fill="#1A6D9B"/>
<path d="M129.5 113.5C43.5 131.5 -12.6667 93.3333 -30 72V-46H629.5V46.5C597 36 511.3 15.2 428.5 16C325 17 237 91 129.5 113.5Z" fill="#E3EEF2"/>
<path d="M526.553 161.139C548.149 119.984 532.294 69.1141 491.139 47.5176C449.984 25.921 399.114 41.7762 377.518 82.9312C355.921 124.086 371.776 174.956 412.931 196.553C454.086 218.149 504.956 202.294 526.553 161.139Z" fill="#FFA81D"/>
<path opacity="0.1" d="M474.509 197.639C516.832 184.448 540.449 139.444 527.257 97.1201C514.066 54.7964 469.062 31.1801 426.738 44.3716C384.415 57.563 360.798 102.567 373.99 144.891C387.181 187.214 432.185 210.831 474.509 197.639Z" fill="black"/>
<path d="M518.489 156.621C537.788 119.844 523.619 74.3849 486.842 55.0856C450.065 35.7863 404.606 49.955 385.306 86.7322C366.007 123.509 380.176 168.969 416.953 188.268C453.73 207.567 499.189 193.398 518.489 156.621Z" fill="white"/>
<path d="M517.314 84.5575C490.808 114.56 447.17 163.812 422.712 190.96C412.049 186.504 402.478 179.596 394.873 170.735L465.487 47.6984C487.032 51.6991 506.217 64.9874 517.314 84.5575Z" fill="#EBEBEB" fill-opacity="0.6"/>
<path d="M524.396 101.824C526.675 110.13 527.476 118.484 526.927 126.64L450.581 196.905C446.227 196.82 441.973 196.394 437.743 195.549C459.931 171.529 500.507 127.662 524.396 101.824Z" fill="#EBEBEB" fill-opacity="0.6"/>
<path d="M431.868 54.8797L430.459 55.3188L433.855 66.2128L435.264 65.7737L431.868 54.8797Z" fill="#C7C7C7"/>
<path d="M401.161 73.8585L400.161 74.9431L408.549 82.6796L409.549 81.595L401.161 73.8585Z" fill="#C7C7C7"/>
<path d="M384.007 105.648L383.683 107.088L394.815 109.595L395.139 108.156L384.007 105.648Z" fill="#C7C7C7"/>
<path d="M395.959 138.352L385.065 141.748L385.505 143.156L396.399 139.761L395.959 138.352Z" fill="#C7C7C7"/>
<path d="M411.824 164.103L404.088 172.491L405.172 173.491L412.909 165.104L411.824 164.103Z" fill="#C7C7C7"/>
<path d="M438.364 178.432L435.864 189.566L437.304 189.889L439.804 178.755L438.364 178.432Z" fill="#C7C7C7"/>
<path d="M469.994 177.203L468.585 177.642L471.98 188.536L473.389 188.097L469.994 177.203Z" fill="#C7C7C7"/>
<path d="M495.293 160.7L494.292 161.785L502.68 169.521L503.68 168.436L495.293 160.7Z" fill="#C7C7C7"/>
<path d="M508.963 133.757L508.639 135.196L519.771 137.703L520.095 136.263L508.963 133.757Z" fill="#C7C7C7"/>
<path d="M518.282 100.227L507.388 103.622L507.827 105.031L518.721 101.635L518.282 100.227Z" fill="#C7C7C7"/>
<path d="M498.638 69.9274L490.902 78.316L491.987 79.3163L499.723 70.9278L498.638 69.9274Z" fill="#C7C7C7"/>
<path d="M466.529 53.4787L464.029 64.6122L465.468 64.9355L467.968 53.802L466.529 53.4787Z" fill="#C7C7C7"/>
<path d="M514.388 83.6204L454.167 124.827L450.387 118.779L513.39 81.9813L514.388 83.6204Z" fill="#FFA81D"/>
<path d="M437.122 72.5615L456.651 124.639L449.813 126.668L435.244 73.147L437.122 72.5615Z" fill="#263238"/>
<path d="M452.649 124.032C453.946 123.628 454.669 122.249 454.265 120.952C453.861 119.656 452.482 118.932 451.185 119.336C449.889 119.74 449.165 121.119 449.569 122.416C449.973 123.712 451.352 124.436 452.649 124.032Z" fill="#FFC727"/>
<path d="M326.014 136.659C325.32 132.528 327.937 127.97 331.866 125.69L330.359 116.732C309.321 125.128 288.322 127.835 265.82 125.239L267.457 135.054C271.801 135.817 276.391 140.096 277.106 144.523C277.854 149.123 274.904 152.758 270.395 152.637L272.091 162.476C294.686 163.92 315.477 159.979 336.042 150.529C335.442 146.946 335.149 145.145 334.535 141.57C330.461 142.973 326.695 140.813 326.014 136.659Z" fill="white"/>
<path d="M328.137 137.724C327.445 133.6 330.046 128.99 333.944 126.637C333.348 123.065 333.063 121.263 332.447 117.707C311.578 126.497 290.646 129.612 268.127 127.451L269.773 137.255C274.106 137.929 278.706 142.149 279.431 146.525C280.198 151.102 277.226 154.811 272.731 154.76L274.38 164.56C297.006 165.568 317.731 161.227 338.126 151.382L336.609 142.468C332.563 143.954 328.83 141.848 328.137 137.724Z" fill="#FFCB80"/>
<path d="M326.014 136.659C325.32 132.528 327.937 127.97 331.866 125.69L330.359 116.732C309.321 125.128 288.322 127.835 265.82 125.239L267.457 135.054C271.801 135.817 276.391 140.096 277.106 144.523C277.854 149.123 274.904 152.758 270.395 152.637L272.091 162.476C294.686 163.92 315.477 159.979 336.042 150.529C335.442 146.946 335.149 145.145 334.535 141.57C330.461 142.973 326.695 140.813 326.014 136.659Z" stroke="#6F6F6F" stroke-width="0.75" stroke-miterlimit="10"/>
<path d="M322.771 125.29L321.437 125.75L321.212 124.449L322.543 123.992L322.771 125.29Z" fill="#F4F4F4"/>
<path d="M323.206 127.886C322.664 128.089 322.409 128.172 321.875 128.35C321.788 127.833 321.741 127.575 321.65 127.049C322.18 126.868 322.449 126.777 322.981 126.585L323.206 127.886Z" fill="#F4F4F4"/>
<path d="M323.645 130.485C323.102 130.689 322.843 130.768 322.31 130.953L322.086 129.652C322.632 129.452 322.887 129.376 323.42 129.184C323.514 129.707 323.554 129.965 323.645 130.485Z" fill="#F4F4F4"/>
<path d="M324.079 133.081L322.749 133.559L322.528 132.255L323.852 131.798L324.079 133.081Z" fill="#F4F4F4"/>
<path d="M324.52 135.67L323.194 136.151L322.97 134.85C323.516 134.65 323.771 134.567 324.299 134.372L324.52 135.67Z" fill="#F4F4F4"/>
<path d="M324.941 138.267L323.611 138.752C323.528 138.232 323.478 137.978 323.387 137.451L324.716 136.966L324.941 138.267Z" fill="#F4F4F4"/>
<path d="M325.39 140.869C324.852 141.076 324.594 141.169 324.062 141.361L323.837 140.06L325.162 139.572L325.39 140.869Z" fill="#F4F4F4"/>
<path d="M325.836 143.475C325.302 143.685 325.044 143.779 324.508 143.974L324.284 142.673L325.612 142.174C325.691 142.691 325.738 142.949 325.836 143.475Z" fill="#F4F4F4"/>
<path d="M326.259 146.061C325.729 146.275 325.464 146.369 324.935 146.564C324.849 146.048 324.802 145.79 324.711 145.263C325.249 145.056 325.507 144.97 326.039 144.763L326.259 146.061Z" fill="#F4F4F4"/>
<path d="M326.698 148.661L325.374 149.171L325.15 147.87L326.477 147.363L326.698 148.661Z" fill="#F4F4F4"/>
<path d="M327.133 151.257L325.81 151.774L325.588 150.469C326.127 150.262 326.384 150.169 326.912 149.959L327.133 151.257Z" fill="#F4F4F4"/>
<path d="M327.567 153.853C327.04 154.069 326.779 154.167 326.248 154.373L326.023 153.072L327.346 152.555L327.567 153.853Z" fill="#F4F4F4"/>
<path d="M280.288 130.989C292.884 130.988 305.422 129.287 317.564 125.934L322.517 155.424C310.547 159.322 298.106 161.587 285.53 162.158L280.288 130.989Z" fill="#F4F4F4"/>
<path d="M307.16 136.394C307.327 136.465 307.477 136.573 307.598 136.709C307.718 136.845 307.807 137.007 307.857 137.182L307.88 137.327C307.937 137.664 307.868 138.011 307.687 138.301C307.475 138.647 307.142 138.901 306.753 139.015L306.556 139.053C306.238 139.121 305.907 139.101 305.6 138.994C304.393 138.542 303.09 138.405 301.815 138.596C301 138.685 300.224 138.988 299.564 139.475C299.317 139.673 299.13 139.936 299.024 140.235C298.918 140.534 298.898 140.856 298.965 141.165C299.004 141.379 299.091 141.58 299.22 141.755C299.35 141.929 299.517 142.072 299.71 142.171C300.203 142.451 300.738 142.648 301.294 142.755C301.923 142.888 302.614 143.002 303.364 143.093C304.114 143.184 304.871 143.306 305.629 143.457C306.356 143.596 307.067 143.803 307.755 144.074C308.403 144.33 308.98 144.736 309.44 145.259C309.939 145.832 310.262 146.537 310.372 147.289C310.492 147.946 310.481 148.621 310.338 149.274C310.196 149.927 309.925 150.545 309.542 151.093C308.617 152.355 307.314 153.29 305.822 153.761C305.795 153.766 305.768 153.777 305.745 153.793C305.722 153.809 305.702 153.829 305.687 153.853C305.672 153.877 305.662 153.903 305.657 153.931C305.653 153.959 305.654 153.987 305.661 154.015L305.958 155.787C305.987 155.947 305.983 156.112 305.946 156.27C305.909 156.429 305.839 156.578 305.741 156.709C305.546 156.984 305.25 157.172 304.917 157.23C304.756 157.264 304.59 157.265 304.428 157.233C304.266 157.201 304.113 157.137 303.976 157.045C303.841 156.955 303.726 156.838 303.639 156.7C303.552 156.563 303.495 156.409 303.471 156.248L303.184 154.543C303.182 154.517 303.175 154.491 303.163 154.468C303.151 154.444 303.134 154.423 303.114 154.406C303.094 154.389 303.071 154.376 303.046 154.369C303.02 154.361 302.994 154.358 302.967 154.361C301.18 154.495 299.386 154.203 297.734 153.508C297.549 153.426 297.383 153.307 297.248 153.157C297.112 153.007 297.009 152.83 296.946 152.638C296.917 152.561 296.895 152.481 296.883 152.4C296.824 152.088 296.879 151.766 297.036 151.49L297.07 151.387C297.151 151.229 297.263 151.09 297.4 150.978C297.537 150.866 297.695 150.783 297.865 150.735C297.965 150.727 298.057 150.712 298.139 150.701C298.432 150.662 298.731 150.7 299.005 150.811C300.405 151.404 301.948 151.578 303.445 151.311C305.937 150.874 307.05 149.869 306.804 148.398C306.765 148.183 306.679 147.979 306.552 147.802C306.424 147.625 306.259 147.478 306.068 147.373C305.581 147.093 305.049 146.901 304.496 146.806C303.868 146.68 303.181 146.57 302.425 146.461C301.659 146.356 300.898 146.21 300.147 146.026C299.408 145.848 298.688 145.599 297.996 145.282C297.339 144.977 296.761 144.527 296.303 143.966C295.829 143.364 295.521 142.647 295.41 141.889C295.279 141.25 295.287 140.59 295.433 139.955C295.579 139.319 295.861 138.723 296.258 138.205C297.184 137.098 298.448 136.327 299.856 136.011C299.99 135.978 300.048 135.901 300.036 135.798L299.74 134.041C299.713 133.885 299.719 133.725 299.756 133.571C299.794 133.417 299.863 133.273 299.959 133.147C300.055 133.011 300.178 132.898 300.321 132.813C300.464 132.729 300.624 132.675 300.789 132.657C300.954 132.628 301.123 132.633 301.286 132.671C301.449 132.71 301.603 132.782 301.737 132.882C301.87 132.97 301.983 133.085 302.069 133.219C302.155 133.353 302.212 133.503 302.237 133.661L302.537 135.436C302.541 135.462 302.55 135.488 302.564 135.51C302.578 135.532 302.596 135.552 302.618 135.566C302.64 135.581 302.665 135.591 302.691 135.596C302.717 135.6 302.744 135.599 302.769 135.592C304.274 135.534 305.773 135.808 307.16 136.394Z" fill="#FFCB80"/>
<path d="M305.925 135.584C306.093 135.656 306.243 135.765 306.364 135.903C306.485 136.04 306.574 136.203 306.624 136.379L306.647 136.524C306.706 136.861 306.637 137.209 306.453 137.498C306.241 137.839 305.909 138.09 305.522 138.201L305.321 138.236C305.002 138.3 304.672 138.277 304.365 138.169C303.158 137.703 301.853 137.553 300.572 137.733C299.757 137.811 298.979 138.106 298.316 138.587C298.069 138.783 297.881 139.045 297.775 139.342C297.668 139.64 297.648 139.961 297.716 140.27C297.756 140.484 297.844 140.687 297.973 140.862C298.102 141.037 298.269 141.181 298.462 141.283C298.955 141.565 299.491 141.767 300.048 141.881C300.676 142.021 301.372 142.146 302.123 142.244C302.874 142.341 303.631 142.471 304.394 142.633C305.117 142.775 305.826 142.985 306.51 143.261C307.158 143.526 307.737 143.938 308.2 144.463C308.697 145.039 309.019 145.745 309.129 146.497C309.251 147.153 309.24 147.827 309.097 148.479C308.953 149.131 308.681 149.747 308.295 150.291C307.367 151.545 306.06 152.467 304.567 152.92C304.54 152.925 304.514 152.936 304.49 152.952C304.467 152.968 304.447 152.988 304.432 153.012C304.417 153.036 304.407 153.062 304.402 153.09C304.398 153.118 304.399 153.146 304.406 153.174L304.703 154.953C304.733 155.112 304.729 155.276 304.692 155.433C304.655 155.591 304.585 155.739 304.487 155.868C304.39 156.003 304.268 156.118 304.127 156.205C303.986 156.293 303.829 156.352 303.665 156.379C303.503 156.411 303.335 156.41 303.173 156.376C303.01 156.343 302.856 156.277 302.72 156.182C302.584 156.093 302.469 155.975 302.382 155.838C302.295 155.701 302.238 155.547 302.215 155.386L301.927 153.674C301.925 153.648 301.918 153.622 301.906 153.598C301.894 153.575 301.877 153.554 301.857 153.537C301.837 153.52 301.814 153.507 301.788 153.499C301.763 153.491 301.737 153.489 301.71 153.491C299.929 153.608 298.144 153.307 296.499 152.612C296.315 152.528 296.149 152.407 296.014 152.256C295.878 152.105 295.775 151.927 295.711 151.735C295.684 151.656 295.662 151.575 295.644 151.493C295.59 151.182 295.645 150.862 295.801 150.587L295.835 150.483C295.915 150.325 296.027 150.185 296.165 150.073C296.303 149.961 296.463 149.88 296.634 149.835L296.915 149.8C297.208 149.766 297.506 149.807 297.779 149.921C299.177 150.528 300.722 150.717 302.226 150.467C304.724 150.055 305.837 149.057 305.588 147.589C305.55 147.373 305.465 147.168 305.337 146.989C305.21 146.811 305.044 146.663 304.851 146.558C304.366 146.272 303.834 146.075 303.281 145.973C302.649 145.843 301.958 145.722 301.202 145.607C300.43 145.491 299.664 145.333 298.909 145.134C298.169 144.947 297.449 144.691 296.757 144.369C296.098 144.057 295.517 143.601 295.059 143.034C294.582 142.434 294.273 141.717 294.166 140.957C294.03 140.321 294.035 139.663 294.18 139.029C294.324 138.395 294.605 137.8 295.003 137.285C295.934 136.184 297.205 135.425 298.616 135.129C298.642 135.128 298.668 135.122 298.692 135.111C298.715 135.099 298.736 135.083 298.753 135.063C298.77 135.043 298.782 135.019 298.79 134.994C298.797 134.969 298.799 134.943 298.795 134.917L298.5 133.159C298.472 133.003 298.478 132.844 298.516 132.69C298.555 132.537 298.625 132.393 298.722 132.269C298.819 132.134 298.943 132.022 299.086 131.939C299.229 131.855 299.388 131.803 299.553 131.786C299.718 131.759 299.887 131.767 300.05 131.807C300.212 131.848 300.365 131.921 300.498 132.022C300.631 132.112 300.745 132.228 300.832 132.363C300.919 132.498 300.978 132.649 301.006 132.807L301.303 134.586C301.307 134.613 301.316 134.638 301.33 134.66C301.344 134.683 301.362 134.702 301.384 134.717C301.406 134.731 301.431 134.741 301.457 134.746C301.483 134.75 301.51 134.749 301.535 134.743C303.042 134.703 304.54 134.99 305.925 135.584V135.584Z" stroke="#6F6F6F" stroke-width="0.75" stroke-miterlimit="10"/>
<path d="M457.991 206.968C457.5 198.205 464.002 189.317 472.709 185.475L471.638 166.471C425.887 179.104 381.531 179.899 335.269 169.302L336.413 190.121C345.284 192.711 353.857 202.68 354.325 212.065C354.82 221.817 347.839 228.707 338.478 227.415L339.741 248.297C386.462 256.516 430.669 253.103 475.677 238.166C475.253 230.566 475.06 226.748 474.605 219.162C465.796 221.143 458.452 215.775 457.991 206.968Z" fill="white"/>
<path d="M462.169 209.676C461.677 200.928 468.159 191.927 476.818 187.927C476.401 180.35 476.223 176.532 475.76 168.983C430.272 182.477 385.961 184.134 339.563 174.44L340.73 195.237C349.598 197.64 358.204 207.491 358.705 216.771C359.247 226.479 352.201 233.518 342.852 232.376L344.027 253.166C390.914 260.483 435.075 256.222 479.821 240.424L478.717 221.509C469.948 223.671 462.66 218.424 462.169 209.676Z" fill="#DFDFDF"/>
<path d="M457.991 206.968C457.5 198.205 464.002 189.317 472.709 185.475L471.638 166.471C425.887 179.104 381.531 179.899 335.269 169.302L336.413 190.121C345.284 192.711 353.857 202.68 354.325 212.065C354.82 221.817 347.839 228.707 338.478 227.415L339.741 248.297C386.462 256.516 430.669 253.103 475.677 238.166C475.253 230.566 475.06 226.748 474.605 219.162C465.796 221.143 458.452 215.775 457.991 206.968Z" stroke="#7B7B7B" stroke-width="0.75" stroke-miterlimit="10"/>
<path d="M453.862 182.543L450.975 183.195L450.808 180.434L453.686 179.789L453.862 182.543Z" fill="#C5C5C5"/>
<path d="M454.168 188.05C452.992 188.349 452.442 188.462 451.289 188.709C451.228 187.614 451.189 187.066 451.121 185.948C452.266 185.693 452.847 185.566 454 185.289L454.168 188.05Z" fill="#C5C5C5"/>
<path d="M454.482 193.564C453.305 193.863 452.748 193.969 451.595 194.231L451.427 191.47C452.611 191.178 453.16 191.08 454.314 190.803C454.39 191.914 454.413 192.461 454.482 193.564Z" fill="#C5C5C5"/>
<path d="M454.788 199.071L451.908 199.761L451.748 196.992L454.612 196.347L454.788 199.071Z" fill="#C5C5C5"/>
<path d="M455.11 204.564L452.237 205.26L452.069 202.499C453.253 202.208 453.803 202.095 454.949 201.81L455.11 204.564Z" fill="#C5C5C5"/>
<path d="M455.386 210.07L452.506 210.774C452.452 209.671 452.406 209.131 452.338 208.012L455.218 207.308L455.386 210.07Z" fill="#C5C5C5"/>
<path d="M455.722 215.592C454.553 215.899 453.995 216.034 452.841 216.311L452.674 213.55L455.546 212.838L455.722 215.592Z" fill="#C5C5C5"/>
<path d="M456.05 221.122C454.888 221.436 454.33 221.572 453.169 221.856L453.001 219.095L455.882 218.361C455.929 219.456 455.967 220.004 456.05 221.122Z" fill="#C5C5C5"/>
<path d="M456.335 226.606C455.18 226.928 454.607 227.063 453.461 227.348C453.4 226.252 453.361 225.704 453.293 224.586C454.462 224.28 455.02 224.159 456.174 223.852L456.335 226.606Z" fill="#C5C5C5"/>
<path d="M456.648 232.12L453.774 232.877L453.606 230.116L456.488 229.367L456.648 232.12Z" fill="#C5C5C5"/>
<path d="M456.955 237.627L454.08 238.399L453.92 235.63C455.089 235.324 455.647 235.188 456.794 234.873L456.955 237.627Z" fill="#C5C5C5"/>
<path d="M457.261 243.134C456.114 243.464 455.548 243.606 454.394 243.913L454.226 241.152L457.1 240.38L457.261 243.134Z" fill="#C5C5C5"/>
<path d="M364.073 184.614C390.305 187.516 416.809 186.867 442.868 182.684L446.381 245.241C420.554 250.599 394.122 252.446 367.801 250.735L364.073 184.614Z" fill="#F1F1F1"/>
<path d="M418.788 202.068C419.12 202.255 419.407 202.514 419.627 202.825C419.847 203.137 419.995 203.494 420.059 203.87L420.074 204.177C420.114 204.893 419.89 205.599 419.446 206.161C418.926 206.832 418.174 207.286 417.337 207.432L416.917 207.466C416.239 207.534 415.556 207.416 414.941 207.123C412.53 205.902 409.848 205.317 407.149 205.422C405.432 205.419 403.745 205.871 402.26 206.733C401.699 207.089 401.249 207.593 400.96 208.191C400.67 208.788 400.553 209.454 400.621 210.114C400.653 210.568 400.789 211.008 401.018 211.401C401.247 211.794 401.562 212.129 401.941 212.381C402.903 213.077 403.972 213.611 405.106 213.962C406.384 214.384 407.797 214.781 409.338 215.143C410.879 215.505 412.427 215.935 413.972 216.425C415.452 216.881 416.887 217.475 418.256 218.199C419.546 218.881 420.655 219.86 421.493 221.055C422.399 222.365 422.91 223.907 422.966 225.498C423.064 226.895 422.884 228.298 422.437 229.625C421.99 230.952 421.284 232.177 420.36 233.23C418.143 235.644 415.213 237.29 411.997 237.927C411.938 237.931 411.881 237.948 411.829 237.976C411.777 238.003 411.731 238.041 411.694 238.088C411.657 238.134 411.63 238.187 411.614 238.243C411.598 238.3 411.594 238.36 411.602 238.418L411.812 242.177C411.836 242.518 411.79 242.86 411.676 243.182C411.562 243.504 411.382 243.798 411.149 244.048C410.678 244.576 410.019 244.898 409.313 244.944C408.969 244.976 408.622 244.94 408.293 244.836C407.964 244.732 407.658 244.563 407.395 244.34C407.134 244.122 406.921 243.851 406.772 243.545C406.622 243.239 406.539 242.904 406.528 242.564L406.322 238.948C406.324 238.892 406.315 238.837 406.296 238.786C406.277 238.734 406.247 238.686 406.209 238.646C406.171 238.606 406.125 238.574 406.074 238.552C406.024 238.53 405.969 238.518 405.914 238.518C402.16 238.385 398.492 237.362 395.211 235.535C394.844 235.322 394.527 235.035 394.279 234.692C394.031 234.348 393.858 233.957 393.772 233.542C393.727 233.375 393.702 233.204 393.695 233.031C393.644 232.368 393.832 231.709 394.223 231.172L394.318 230.964C394.522 230.655 394.788 230.391 395.099 230.189C395.41 229.987 395.759 229.851 396.124 229.79C396.334 229.796 396.529 229.786 396.701 229.783C397.321 229.769 397.935 229.916 398.481 230.211C401.26 231.77 404.432 232.487 407.612 232.276C412.902 231.942 415.452 230.105 415.278 226.984C415.247 226.528 415.115 226.084 414.891 225.686C414.666 225.287 414.356 224.944 413.982 224.681C413.033 223.985 411.969 223.463 410.838 223.138C409.56 222.73 408.155 222.342 406.607 221.942C405.035 221.545 403.484 221.067 401.962 220.51C400.464 219.968 399.022 219.283 397.655 218.465C396.357 217.678 395.255 216.607 394.432 215.332C393.583 213.969 393.107 212.407 393.052 210.801C392.926 209.441 393.095 208.069 393.546 206.779C393.997 205.489 394.72 204.311 395.666 203.325C397.85 201.234 400.662 199.92 403.667 199.585C403.952 199.548 404.091 199.401 404.089 199.184L403.879 195.455C403.859 195.124 403.907 194.793 404.021 194.481C404.135 194.17 404.312 193.885 404.54 193.645C404.772 193.384 405.055 193.176 405.373 193.033C405.69 192.89 406.034 192.816 406.382 192.816C406.733 192.793 407.084 192.843 407.415 192.961C407.745 193.079 408.048 193.263 408.305 193.503C408.561 193.717 408.77 193.982 408.919 194.281C409.067 194.58 409.151 194.907 409.166 195.241L409.383 199.007C409.384 199.062 409.397 199.117 409.421 199.167C409.445 199.217 409.479 199.261 409.521 199.297C409.564 199.333 409.613 199.359 409.666 199.374C409.719 199.39 409.775 199.394 409.83 199.386C412.977 199.611 416.035 200.527 418.788 202.068Z" fill="#F1F1F1"/>
<path d="M416.404 200.096C416.738 200.286 417.025 200.547 417.245 200.861C417.464 201.175 417.612 201.534 417.676 201.912L417.69 202.22C417.735 202.936 417.511 203.644 417.062 204.204C416.541 204.866 415.792 205.311 414.961 205.453L414.534 205.479C413.855 205.539 413.172 205.415 412.558 205.12C410.153 203.871 407.469 203.257 404.76 203.337C403.046 203.312 401.355 203.746 399.866 204.596C399.304 204.946 398.853 205.448 398.563 206.043C398.273 206.639 398.157 207.304 398.227 207.962C398.261 208.417 398.397 208.859 398.626 209.254C398.854 209.649 399.169 209.987 399.547 210.244C400.509 210.945 401.577 211.489 402.711 211.854C403.988 212.292 405.408 212.711 406.949 213.088C408.49 213.465 410.037 213.91 411.589 214.422C413.063 214.886 414.49 215.487 415.85 216.219C417.14 216.921 418.25 217.911 419.094 219.112C419.996 220.426 420.504 221.97 420.559 223.563C420.662 224.957 420.483 226.358 420.034 227.682C419.586 229.006 418.876 230.227 417.946 231.271C415.725 233.669 412.791 235.288 409.578 235.886C409.519 235.891 409.462 235.907 409.41 235.935C409.358 235.963 409.312 236.001 409.275 236.047C409.238 236.093 409.211 236.146 409.195 236.203C409.179 236.26 409.175 236.319 409.183 236.378L409.392 240.151C409.418 240.49 409.372 240.83 409.258 241.149C409.144 241.469 408.964 241.761 408.73 242.007C408.498 242.266 408.217 242.477 407.903 242.627C407.589 242.777 407.249 242.863 406.901 242.881C406.555 242.911 406.206 242.87 405.876 242.763C405.545 242.655 405.24 242.482 404.977 242.254C404.716 242.036 404.503 241.765 404.353 241.459C404.204 241.153 404.121 240.819 404.11 240.478L403.904 236.847C403.907 236.792 403.898 236.737 403.878 236.685C403.859 236.633 403.829 236.586 403.791 236.546C403.753 236.506 403.707 236.474 403.657 236.451C403.606 236.429 403.551 236.418 403.496 236.417C399.758 236.25 396.112 235.211 392.847 233.383C392.482 233.166 392.165 232.875 391.918 232.53C391.67 232.184 391.497 231.791 391.408 231.376C391.37 231.204 391.342 231.031 391.324 230.857C391.283 230.196 391.472 229.542 391.859 229.005L391.955 228.798C392.157 228.486 392.423 228.22 392.736 228.019C393.048 227.818 393.4 227.686 393.768 227.631L394.36 227.624C394.979 227.62 395.589 227.775 396.131 228.075C398.905 229.661 402.077 230.412 405.267 230.238C410.564 229.956 413.113 228.134 412.932 225.02C412.904 224.561 412.773 224.115 412.549 223.713C412.324 223.312 412.013 222.966 411.636 222.702C410.691 221.996 409.63 221.461 408.501 221.122C407.216 220.706 405.803 220.295 404.255 219.88C402.674 219.461 401.117 218.955 399.59 218.366C398.092 217.807 396.65 217.107 395.284 216.276C393.984 215.475 392.88 214.391 392.055 213.105C391.201 211.745 390.724 210.181 390.675 208.575C390.54 207.218 390.701 205.849 391.149 204.562C391.596 203.275 392.319 202.1 393.266 201.12C395.458 199.042 398.281 197.755 401.287 197.463C401.342 197.467 401.397 197.46 401.449 197.442C401.501 197.424 401.548 197.395 401.588 197.357C401.628 197.319 401.659 197.273 401.68 197.222C401.701 197.172 401.711 197.117 401.71 197.062L401.499 193.333C401.478 193.003 401.527 192.671 401.642 192.361C401.757 192.05 401.936 191.767 402.168 191.53C402.401 191.273 402.685 191.067 403.002 190.927C403.32 190.787 403.663 190.715 404.01 190.717C404.36 190.7 404.71 190.754 405.039 190.876C405.368 190.998 405.669 191.185 405.924 191.426C406.18 191.645 406.389 191.913 406.539 192.214C406.69 192.515 406.779 192.843 406.8 193.179L407.009 196.953C407.01 197.008 407.023 197.062 407.047 197.112C407.071 197.162 407.105 197.207 407.148 197.242C407.19 197.278 407.239 197.305 407.292 197.32C407.346 197.335 407.401 197.339 407.456 197.331C410.604 197.596 413.656 198.539 416.404 200.096V200.096Z" stroke="#949494" stroke-width="0.75" stroke-miterlimit="10"/>
<path d="M225.099 197.996C230.246 188.225 243.018 182.85 254.9 184.348L266.057 163.154C208.522 147.139 160.161 119.257 117.125 77.8525L104.87 101.051C112.76 109.592 115.549 125.901 109.973 136.327C104.19 147.167 92.1942 150.076 82.934 142.618L70.7663 165.961C115.838 205.098 165.735 230.058 223.962 243.107C228.429 234.634 230.695 230.391 235.119 221.914C224.334 218.343 219.889 207.794 225.099 197.996Z" fill="white"/>
<path d="M227.85 203.624C232.987 193.869 245.811 188.359 257.744 189.655C262.203 181.211 264.485 176.977 268.876 168.535C211.067 153.618 162.195 126.696 118.427 86.1774L106.212 109.367C114.22 117.705 117.122 133.907 111.649 144.241C105.943 155.064 93.783 158.092 84.4375 150.802L72.2351 173.989C118.071 212.261 168.467 236.277 226.97 248.228L238.034 227.109C227.175 223.76 222.712 213.379 227.85 203.624Z" fill="#FFA81D"/>
<path d="M225.099 197.996C230.246 188.225 243.018 182.85 254.9 184.348L266.057 163.154C208.522 147.139 160.161 119.257 117.125 77.8525L104.87 101.051C112.76 109.592 115.549 125.901 109.973 136.327C104.19 147.167 92.1942 150.076 82.934 142.618L70.7663 165.961C115.838 205.098 165.735 230.058 223.962 243.107C228.429 234.634 230.695 230.391 235.119 221.914C224.334 218.343 219.889 207.794 225.099 197.996Z" stroke="black" stroke-width="0.75" stroke-miterlimit="10"/>
<path d="M236.469 168.973L232.934 167.806L234.542 164.719L238.064 165.889L236.469 168.973Z" fill="#E7F0F5"/>
<path d="M233.232 175.112C231.769 174.672 231.103 174.438 229.699 173.958C230.343 172.736 230.656 172.121 231.307 170.87C232.708 171.338 233.416 171.576 234.84 172.025L233.232 175.112Z" fill="#E7F0F5"/>
<path d="M229.997 181.264C228.534 180.824 227.865 180.577 226.451 180.112L228.059 177.025C229.525 177.478 230.181 177.728 231.605 178.176C230.967 179.424 230.638 180.029 229.997 181.264Z" fill="#E7F0F5"/>
<path d="M226.76 187.402L223.207 186.28L224.828 183.189L228.334 184.349L226.76 187.402Z" fill="#E7F0F5"/>
<path d="M223.548 193.535L219.998 192.426L221.606 189.338C223.072 189.791 223.738 190.025 225.159 190.46L223.548 193.535Z" fill="#E7F0F5"/>
<path d="M220.279 199.653L216.716 198.547C217.372 197.323 217.673 196.71 218.324 195.459L221.887 196.566L220.279 199.653Z" fill="#E7F0F5"/>
<path d="M217.063 205.828C215.603 205.401 214.914 205.186 213.49 204.737L215.098 201.65L218.658 202.743L217.063 205.828Z" fill="#E7F0F5"/>
<path d="M213.834 212.006C212.377 211.592 211.688 211.376 210.251 210.931L211.859 207.844L215.442 208.918C214.783 210.129 214.469 210.745 213.834 212.006Z" fill="#E7F0F5"/>
<path d="M210.588 218.105C209.134 217.704 208.429 217.479 207.008 217.043C207.651 215.822 207.965 215.206 208.616 213.956C210.076 214.383 210.755 214.614 212.199 215.031L210.588 218.105Z" fill="#E7F0F5"/>
<path d="M207.354 224.257L203.763 223.211L205.371 220.124L208.964 221.182L207.354 224.257Z" fill="#E7F0F5"/>
<path d="M204.116 230.395L200.516 229.365L202.136 226.275C203.596 226.702 204.286 226.917 205.727 227.321L204.116 230.395Z" fill="#E7F0F5"/>
<path d="M200.879 236.534C199.427 236.146 198.725 235.934 197.281 235.517L198.889 232.43L202.489 233.459L200.879 236.534Z" fill="#E7F0F5"/>
<path d="M138.274 113.032C164.69 133.159 193.7 149.631 224.519 162.003L187.777 231.757C156.447 220.803 126.738 205.671 99.4549 186.77L138.274 113.032Z" fill="#E7F0F5"/>
<path d="M185.985 167.31C186.223 167.727 186.365 168.192 186.4 168.67C186.436 169.149 186.364 169.63 186.19 170.077L186.006 170.418C185.585 171.216 184.887 171.833 184.043 172.151C183.047 172.538 181.942 172.54 180.945 172.156L180.47 171.92C179.694 171.555 179.034 170.984 178.56 170.269C176.751 167.391 174.237 165.022 171.257 163.386C169.407 162.27 167.294 161.665 165.134 161.633C164.299 161.654 163.487 161.906 162.788 162.363C162.088 162.82 161.53 163.462 161.176 164.219C160.917 164.729 160.778 165.291 160.77 165.863C160.762 166.435 160.886 167.002 161.131 167.519C161.718 168.893 162.525 170.161 163.521 171.275C164.625 172.558 165.893 173.901 167.321 175.291C168.749 176.68 170.139 178.146 171.489 179.676C172.79 181.127 173.952 182.697 174.96 184.365C175.91 185.937 176.472 187.712 176.602 189.544C176.73 191.543 176.282 193.538 175.311 195.291C174.512 196.861 173.41 198.258 172.067 199.399C170.725 200.541 169.17 201.405 167.491 201.942C163.535 203.11 159.309 202.987 155.427 201.59C155.361 201.557 155.288 201.538 155.214 201.534C155.14 201.53 155.066 201.541 154.996 201.567C154.926 201.593 154.863 201.632 154.809 201.684C154.755 201.735 154.712 201.796 154.683 201.865L152.473 206.055C152.279 206.438 152.007 206.777 151.676 207.05C151.344 207.324 150.96 207.525 150.546 207.643C149.696 207.908 148.776 207.828 147.985 207.42C147.593 207.232 147.243 206.968 146.955 206.643C146.667 206.317 146.447 205.938 146.308 205.526C146.167 205.121 146.113 204.691 146.15 204.264C146.187 203.837 146.314 203.423 146.523 203.049L148.644 199.014C148.682 198.956 148.708 198.891 148.721 198.823C148.733 198.754 148.732 198.684 148.717 198.616C148.702 198.548 148.673 198.484 148.633 198.427C148.593 198.37 148.541 198.322 148.482 198.286C144.519 195.711 141.225 192.231 138.87 188.134C138.612 187.667 138.456 187.152 138.411 186.621C138.366 186.09 138.433 185.555 138.608 185.052C138.669 184.843 138.752 184.641 138.857 184.451C139.232 183.703 139.861 183.113 140.631 182.787L140.868 182.625C141.289 182.424 141.747 182.312 142.213 182.295C142.679 182.279 143.143 182.358 143.577 182.529C143.8 182.671 144.016 182.786 144.204 182.895C144.882 183.282 145.448 183.838 145.846 184.51C147.834 187.992 150.791 190.821 154.357 192.654C160.281 195.721 164.221 195.392 166.056 191.913C166.318 191.4 166.463 190.836 166.479 190.261C166.496 189.686 166.383 189.114 166.151 188.588C165.578 187.223 164.768 185.97 163.759 184.887C162.645 183.619 161.38 182.289 159.969 180.855C158.531 179.408 157.168 177.888 155.887 176.301C154.622 174.745 153.51 173.072 152.566 171.305C151.676 169.615 151.181 167.746 151.119 165.837C151.086 163.817 151.585 161.823 152.566 160.056C153.312 158.507 154.382 157.136 155.705 156.037C157.027 154.938 158.57 154.136 160.23 153.685C163.94 152.844 167.825 153.248 171.283 154.835C171.616 154.979 171.86 154.911 171.999 154.676L174.188 150.517C174.381 150.147 174.648 149.821 174.972 149.558C175.297 149.296 175.672 149.103 176.075 148.993C176.493 148.862 176.934 148.821 177.369 148.872C177.803 148.924 178.223 149.067 178.598 149.292C178.991 149.495 179.338 149.775 179.618 150.117C179.898 150.459 180.105 150.854 180.227 151.279C180.365 151.676 180.419 152.097 180.385 152.516C180.351 152.935 180.23 153.342 180.03 153.711L177.824 157.915C177.789 157.975 177.768 158.042 177.761 158.112C177.755 158.181 177.763 158.251 177.785 158.317C177.808 158.383 177.844 158.443 177.891 158.494C177.939 158.545 177.996 158.586 178.061 158.613C181.309 160.895 184.014 163.864 185.985 167.31Z" fill="#EF910A"/>
<path d="M184.692 163.638C184.929 164.059 185.069 164.526 185.103 165.008C185.136 165.489 185.062 165.972 184.886 166.421L184.703 166.762C184.287 167.564 183.587 168.182 182.74 168.495C181.748 168.872 180.653 168.867 179.665 168.482L179.187 168.233C178.415 167.858 177.759 167.282 177.287 166.566C175.503 163.66 173.006 161.258 170.032 159.59C168.199 158.452 166.094 157.825 163.937 157.776C163.104 157.791 162.292 158.04 161.593 158.494C160.895 158.949 160.339 159.59 159.989 160.346C159.73 160.859 159.591 161.423 159.581 161.998C159.572 162.572 159.692 163.141 159.933 163.662C160.517 165.043 161.317 166.321 162.303 167.45C163.397 168.749 164.657 170.121 166.075 171.527C167.493 172.932 168.873 174.414 170.216 175.972C171.505 177.427 172.655 179 173.648 180.671C174.585 182.263 175.14 184.051 175.272 185.893C175.394 187.895 174.941 189.89 173.969 191.643C173.176 193.214 172.076 194.609 170.734 195.747C169.392 196.885 167.836 197.741 166.156 198.266C162.207 199.413 157.993 199.258 154.14 197.821C154.073 197.788 154.001 197.769 153.927 197.765C153.852 197.762 153.778 197.773 153.709 197.798C153.639 197.824 153.575 197.864 153.521 197.915C153.467 197.966 153.425 198.028 153.395 198.096L151.176 202.302C150.984 202.684 150.714 203.021 150.384 203.292C150.054 203.562 149.671 203.761 149.259 203.874C148.841 204.003 148.401 204.049 147.966 204.007C147.53 203.966 147.107 203.838 146.721 203.633C146.328 203.44 145.977 203.171 145.691 202.841C145.404 202.51 145.187 202.126 145.051 201.71C144.91 201.305 144.856 200.875 144.893 200.448C144.93 200.021 145.057 199.607 145.266 199.232L147.397 195.182C147.435 195.124 147.461 195.059 147.474 194.99C147.487 194.922 147.485 194.852 147.47 194.784C147.455 194.716 147.427 194.652 147.386 194.595C147.346 194.538 147.294 194.49 147.235 194.454C143.312 191.851 140.051 188.368 137.714 184.282C137.461 183.81 137.308 183.292 137.264 182.759C137.221 182.226 137.289 181.69 137.463 181.184C137.532 180.974 137.615 180.769 137.709 180.569C138.092 179.83 138.72 179.247 139.485 178.919L139.722 178.757C140.143 178.551 140.602 178.437 141.069 178.423C141.537 178.409 142.002 178.494 142.434 178.674L143.077 179.05C143.748 179.446 144.306 180.009 144.696 180.683C146.66 184.191 149.595 187.057 153.15 188.936C159.045 192.063 162.976 191.75 164.798 188.274C165.065 187.761 165.213 187.194 165.231 186.616C165.249 186.037 165.137 185.462 164.902 184.933C164.34 183.56 163.542 182.296 162.544 181.198C161.427 179.917 160.169 178.558 158.769 177.108C157.335 175.63 155.982 174.076 154.718 172.451C153.464 170.878 152.362 169.189 151.427 167.407C150.543 165.701 150.055 163.817 149.998 161.895C149.958 159.874 150.457 157.878 151.445 156.114C152.177 154.563 153.239 153.191 154.556 152.092C155.872 150.993 157.413 150.195 159.069 149.752C162.78 148.929 166.659 149.37 170.091 151.004C170.147 151.044 170.212 151.072 170.279 151.086C170.347 151.099 170.417 151.099 170.484 151.084C170.552 151.069 170.615 151.04 170.671 150.999C170.727 150.957 170.773 150.905 170.807 150.845L172.996 146.686C173.187 146.316 173.454 145.99 173.78 145.73C174.105 145.469 174.482 145.28 174.885 145.175C175.303 145.048 175.743 145.01 176.176 145.065C176.609 145.119 177.026 145.264 177.399 145.49C177.788 145.699 178.131 145.985 178.407 146.329C178.682 146.674 178.886 147.07 179.005 147.495C179.139 147.897 179.191 148.322 179.158 148.744C179.125 149.167 179.008 149.578 178.814 149.954L176.594 154.16C176.56 154.221 176.538 154.288 176.532 154.357C176.525 154.427 176.533 154.497 176.556 154.563C176.578 154.629 176.614 154.689 176.662 154.74C176.709 154.791 176.767 154.831 176.831 154.859C180.055 157.183 182.737 160.178 184.692 163.638V163.638Z" stroke="black" stroke-width="0.75" stroke-miterlimit="10"/>
<ellipse cx="411.966" cy="288.31" rx="28.5" ry="3" fill="#145F89"/>
<ellipse cx="204.5" cy="294" rx="24.5" ry="3" fill="#145F89"/>
</g>
<defs>
<clipPath id="clip0">
<path d="M0 6C0 2.6863 2.68629 0 6 0H594C597.314 0 600 2.68629 600 6V314H0V6Z" fill="white"/>
</clipPath>
</defs>
</svg>
