<svg width="600" height="474" viewBox="0 0 600 474" fill="none" xmlns="http://www.w3.org/2000/svg">
<mask id="mask0" mask-type="alpha" maskUnits="userSpaceOnUse" x="0" y="0" width="600" height="474">
<rect width="600" height="474" rx="4" fill="white"/>
</mask>
<g mask="url(#mask0)">
<path fill-rule="evenodd" clip-rule="evenodd" d="M16.6369 -48.3646C40.5202 -43.0212 68.3521 -38.347 78.4974 -16.0081C88.7439 6.55371 74.8504 31.3435 62.6354 52.9192C51.0421 73.3969 36.4674 93.3552 13.5968 98.6275C-10.2176 104.117 -35.7357 96.5548 -53.4347 79.6764C-70.2031 63.6855 -73.712 39.5537 -72.6789 16.3521C-71.6568 -6.60132 -66.4868 -30.8333 -47.9147 -44.2904C-29.5178 -57.6205 -5.49624 -53.3165 16.6369 -48.3646Z" fill="#FFA81D"/>
<path fill-rule="evenodd" clip-rule="evenodd" d="M691.556 356.374C707.396 381.718 726.798 410.138 721.343 435.304C715.833 460.721 689.682 465.995 666.823 470.475C645.128 474.727 621.366 475.921 599.89 459.107C577.528 441.598 561.729 413.189 557.834 385.138C554.143 358.562 565.989 338.087 580.9 322.37C595.651 306.821 614.493 294.09 637.503 301.161C660.296 308.165 676.877 332.887 691.556 356.374Z" fill="#FFA81D"/>
<path fill-rule="evenodd" clip-rule="evenodd" d="M525.233 -26.4851C533.846 -42.0574 542.802 -60.5224 560.42 -63.0233C578.213 -65.5492 592.608 -50.7716 605.111 -37.8242C616.978 -25.5358 627.872 -11.2732 626.851 5.76845C625.788 23.5134 615.297 39.7716 599.929 48.6634C585.369 57.0878 567.865 54.5898 551.938 49.1127C536.183 43.6942 520.388 35.1188 514.835 19.3992C509.334 3.82789 517.252 -12.0539 525.233 -26.4851Z" fill="#178FAC"/>
<path fill-rule="evenodd" clip-rule="evenodd" d="M-122.031 488.057C-106.442 426.148 -89.9045 354.652 -62.2386 319.992C-34.2965 284.985 -14.1112 309.373 3.40552 330.907C20.0308 351.344 34.865 379.448 30.8311 434.402C26.6307 491.623 8.03152 558.541 -17.0669 609.802C-40.8457 658.368 -67.617 677.192 -91.5138 684.279C-115.155 691.289 -138.403 688.468 -144.748 647.666C-151.034 607.249 -136.478 545.428 -122.031 488.057Z" fill="#178FAC"/>
<path fill-rule="evenodd" clip-rule="evenodd" d="M676.991 617.435C674.142 700.931 672.116 796.916 654.173 849.374C636.051 902.357 614.449 877.404 595.639 855.28C577.786 834.283 560.166 802.987 554.233 731.827C548.054 657.731 552.644 566.951 565.526 494.138C577.731 425.154 597.615 393.122 617.029 376.895C636.235 360.842 656.786 357.422 669.254 407.439C681.605 456.985 679.632 540.058 676.991 617.435Z" stroke="#8C8C8C"/>
<path d="M38.9307 0C38.9307 0 42.7759 99.8528 24.5364 159.213C6.29681 218.574 -0.184102 232.409 -0.184102 232.409" stroke="#178FAC" stroke-linejoin="bevel"/>
</g>
</svg>
