<svg width="600" height="312" viewBox="0 0 600 312" fill="none" xmlns="http://www.w3.org/2000/svg">
<path d="M0 6C0 2.6863 2.68629 0 6 0H594C597.314 0 600 2.68629 600 6V312H0V6Z" fill="white"/>
<path opacity="0.2" d="M0 6C0 2.6863 2.68629 0 6 0H594C597.314 0 600 2.68629 600 6V312H0V6Z" fill="#FFA81D"/>
<mask id="mask0" mask-type="alpha" maskUnits="userSpaceOnUse" x="0" y="0" width="600" height="312">
<path d="M0 6C0 2.6863 2.68629 0 6 0H594C597.314 0 600 2.68629 600 6V312H0V6Z" fill="#FFA81D"/>
</mask>
<g mask="url(#mask0)">
<path d="M0 78.7559C0 78.7559 155.258 -26.7136 316.026 14.3457C476.793 55.4049 601 25.8569 601 25.8569V-36.9758H0V78.7559Z" fill="#FFC645"/>
<path opacity="0.1" d="M561.011 174.714C559.971 173.788 559.37 172.541 559.33 171.152C559.33 168.374 561.851 166.13 564.971 166.13L634.583 166.13C637.704 166.13 640.224 168.374 640.224 171.152C640.224 173.93 637.704 176.174 634.583 176.174L564.971 176.174C563.411 176.21 562.051 175.64 561.011 174.714Z" fill="#FFA81D"/>
<path opacity="0.1" d="M-56.03 155.891C-57.5783 154.513 -58.4716 152.658 -58.5311 150.59C-58.5311 146.455 -54.7794 143.115 -50.1344 143.115H53.485C58.13 143.115 61.8817 146.455 61.8817 150.59C61.8817 154.725 58.13 158.065 53.485 158.065H-50.1344C-52.4569 158.118 -54.4816 157.27 -56.03 155.891Z" fill="#FFA81D"/>
</g>
<path d="M531.866 41.0001L524 45.373L528.373 53.2392L536.239 48.8663L531.866 41.0001Z" stroke="#178FAC" stroke-width="3" stroke-linejoin="round"/>
<rect x="213" y="153" width="17" height="5" rx="2.5" fill="#FAFAFA"/>
<rect x="340" y="144" width="17" height="5" rx="2.5" fill="#FAFAFA"/>
<circle cx="502" cy="264" r="5" fill="white"/>
<circle cx="69" cy="71" r="4" fill="white"/>
<circle opacity="0.1" cx="541" cy="172" r="6" fill="#FFA81D"/>
<path opacity="0.1" d="M169.079 53.381C168.28 52.5825 167.808 51.5188 167.756 50.3424C167.712 47.9907 169.576 46.127 171.927 46.1711L224.387 47.1547C226.739 47.1988 228.674 49.1339 228.718 51.4855C228.762 53.8371 226.898 55.7009 224.546 55.6568L172.087 54.6731C170.912 54.6812 169.878 54.1796 169.079 53.381Z" fill="#FFA81D"/>
<path d="M220.028 40.7286C222.291 33.0914 217.935 25.0656 210.298 22.8025C202.66 20.5393 194.635 24.8958 192.372 32.533C190.108 40.1702 194.465 48.196 202.102 50.4591C209.739 52.7223 217.765 48.3658 220.028 40.7286Z" fill="#FFA81D"/>
<path d="M218.766 40.5036C221.083 32.8832 216.783 24.8278 209.162 22.5115C201.542 20.1952 193.487 24.4951 191.17 32.1155C188.854 39.736 193.154 47.7913 200.774 50.1076C208.395 52.4239 216.45 48.1241 218.766 40.5036Z" fill="#FFD43B"/>
<path d="M201.534 49.1702C198.141 48.2613 195.303 46.0838 193.55 43.0477C191.797 40.0116 191.331 36.4647 192.24 33.0724C193.148 29.6802 195.326 26.8417 198.362 25.0888C201.398 23.3359 204.945 22.8694 208.337 23.7783C211.73 24.6873 214.568 26.8647 216.321 29.9009C218.074 32.937 218.54 36.4839 217.631 39.8761C216.722 43.2684 214.545 46.1069 211.509 47.8598C208.46 49.6093 204.926 50.0792 201.534 49.1702ZM208.134 24.5391C201.549 22.7747 194.765 26.6913 193 33.2763C191.236 39.8612 195.153 46.645 201.737 48.4095C208.322 50.1739 215.106 46.2572 216.871 39.6723C218.635 33.0874 214.706 26.3002 208.134 24.5391Z" fill="#FFA412"/>
<path d="M205.522 39.6604C205.607 39.4571 205.649 39.2628 205.654 39.0896C205.66 38.9163 205.617 38.7302 205.541 38.5555C205.464 38.3809 205.34 38.1934 205.174 38.0052C205.009 37.817 204.798 37.6064 204.546 37.3951C204.105 37.0097 203.712 36.6371 203.378 36.2703C203.035 35.901 202.774 35.5331 202.576 35.1613C202.38 34.78 202.269 34.3905 202.244 33.9832C202.22 33.5759 202.297 33.1341 202.488 32.651C202.649 32.242 202.877 31.8919 203.158 31.6077C203.44 31.3235 203.764 31.1123 204.142 30.9669C204.51 30.819 204.921 30.7441 205.364 30.7395C205.807 30.7349 206.273 30.7981 206.757 30.9483L207.38 29.389L208.633 29.8892L208.005 31.4677C208.434 31.7061 208.791 31.9866 209.084 32.3117C209.377 32.6369 209.6 32.9946 209.742 33.3822C209.885 33.7698 209.948 34.1874 209.931 34.635C209.914 35.0825 209.81 35.5479 209.618 36.031L207.354 35.1261C207.582 34.5401 207.629 34.0593 207.489 33.6621C207.346 33.2745 207.052 32.9902 206.627 32.8145C206.395 32.7215 206.172 32.672 205.977 32.6712C205.782 32.6703 205.608 32.7059 205.445 32.7754C205.292 32.8475 205.153 32.9438 205.045 33.0793C204.927 33.2121 204.833 33.3718 204.765 33.5489C204.697 33.7259 204.651 33.8985 204.646 34.0717C204.643 34.2354 204.679 34.4094 204.755 34.584C204.832 34.7587 204.956 34.9462 205.121 35.1343C205.287 35.3225 205.505 35.5453 205.777 35.793C206.206 36.1855 206.588 36.5651 206.933 36.9248C207.267 37.2916 207.537 37.6621 207.723 38.0409C207.919 38.4222 208.031 38.8117 208.055 39.219C208.08 39.6263 208.002 40.0681 207.814 40.5416C207.648 40.9698 207.42 41.3199 207.129 41.6015C206.847 41.8857 206.514 42.0944 206.148 42.2327C205.782 42.371 205.374 42.4364 204.921 42.4384C204.481 42.4334 204.008 42.358 203.522 42.2174L202.939 43.6643L201.695 43.1666L202.266 41.7268C201.85 41.5127 201.47 41.2463 201.121 40.9371C200.772 40.6278 200.496 40.2765 200.296 39.8734C200.096 39.4704 199.978 39.0278 199.955 38.5386C199.932 38.0495 200.035 37.5119 200.273 36.9284L202.538 37.8333C202.405 38.1777 202.332 38.4871 202.342 38.7569C202.342 39.0242 202.401 39.266 202.511 39.4701C202.62 39.6742 202.76 39.845 202.95 39.9782C203.138 40.1211 203.336 40.2255 203.549 40.3134C203.79 40.4089 204.023 40.461 204.235 40.4766C204.446 40.4922 204.639 40.4617 204.809 40.4044C204.978 40.347 205.127 40.2532 205.245 40.1204C205.35 39.9946 205.442 39.8444 205.522 39.6604Z" fill="#17547F"/>
<path d="M63.6733 93.9486L66.9487 88.2754L61.2755 84.9999L58 90.6732L63.6733 93.9486Z" stroke="#EB6767" stroke-width="3" stroke-linejoin="round"/>
<path d="M251.342 40.0002L246.842 47.7944L254.637 52.2944L259.137 44.5002L251.342 40.0002Z" stroke="#178FAC" stroke-width="3" stroke-linejoin="round"/>
<path d="M570 268.9L573.9 275.654L580.654 271.755L576.754 265L570 268.9Z" stroke="#178FAC" stroke-width="3" stroke-linejoin="round"/>
<path d="M511.089 53.4371C504.731 41.7232 490.08 37.3818 478.366 43.7402C466.653 50.0987 462.311 64.7491 468.67 76.463C475.028 88.1769 489.678 92.5183 501.392 86.1599C513.106 79.8015 517.448 65.1509 511.089 53.4371Z" fill="#FFA81D"/>
<path d="M509.33 54.6628C503.054 42.9058 488.436 38.4624 476.679 44.7382C464.922 51.014 460.478 65.6324 466.754 77.3894C473.03 89.1463 487.648 93.5897 499.405 87.314C511.162 81.0382 515.606 66.4198 509.33 54.6628Z" fill="#FFD43B"/>
<path d="M499.194 85.3071C494.105 88.2453 488.17 89.0274 482.504 87.5091C476.837 85.9909 472.089 82.3462 469.151 77.2571C466.212 72.168 465.43 66.2333 466.949 60.567C468.467 54.9007 472.112 50.1521 477.201 47.2139C482.29 44.2757 488.224 43.4936 493.891 45.0119C499.557 46.5302 504.306 50.1749 507.244 55.2639C510.182 60.353 510.964 66.2878 509.446 71.9541C507.909 77.6312 504.283 82.3689 499.194 85.3071ZM477.86 48.3552C467.981 54.0587 464.588 66.7194 470.292 76.5982C475.995 86.4769 488.656 89.8694 498.535 84.1658C508.414 78.4623 511.806 65.8017 506.103 55.9229C500.399 46.0441 487.72 42.6625 477.86 48.3552Z" fill="#FFA412"/>
<path d="M494.003 70.2677C493.822 69.8237 493.587 69.4603 493.328 69.1854C493.07 68.9106 492.718 68.6897 492.331 68.5387C491.945 68.3877 491.465 68.2906 490.921 68.2556C490.376 68.2205 489.728 68.2207 489.015 68.2828C487.743 68.3689 486.564 68.4009 485.486 68.3494C484.39 68.3088 483.422 68.1443 482.545 67.8775C481.657 67.5921 480.886 67.164 480.221 66.5748C479.556 65.9855 478.996 65.1868 478.546 64.1491C478.164 63.2718 477.975 62.383 477.972 61.5121C477.968 60.6412 478.141 59.8178 478.499 59.0123C478.839 58.2176 479.355 57.4703 480.03 56.7813C480.705 56.0923 481.519 55.4724 482.495 54.9589L481.055 51.5996L483.753 50.4406L485.216 53.8373C486.243 53.5434 487.223 53.4265 488.175 53.4758C489.126 53.5252 490.02 53.7329 490.836 54.1098C491.652 54.4867 492.392 55.0327 493.054 55.7479C493.717 56.4631 494.272 57.3396 494.722 58.3773L489.843 60.4705C489.294 59.2161 488.626 58.4045 487.799 58.0089C486.982 57.632 486.093 57.6467 485.167 58.0313C484.667 58.2452 484.248 58.5124 483.946 58.8112C483.645 59.11 483.432 59.4325 483.289 59.7895C483.164 60.1358 483.099 60.4978 483.141 60.8728C483.164 61.2585 483.265 61.6493 483.432 62.0264C483.6 62.4035 483.795 62.7403 484.053 63.0152C484.301 63.2713 484.623 63.4842 485.01 63.6353C485.396 63.7863 485.877 63.8833 486.421 63.9184C486.965 63.9535 487.643 63.9612 488.444 63.9228C489.708 63.8662 490.88 63.8637 491.965 63.8857C493.042 63.9371 494.029 64.0909 494.899 64.3871C495.787 64.6726 496.558 65.1006 497.222 65.6898C497.887 66.2791 498.448 67.0778 498.887 68.0968C499.29 69.0115 499.479 69.9003 499.464 70.782C499.468 71.6529 499.276 72.4871 498.926 73.2631C498.575 74.0391 498.048 74.7677 497.354 75.4675C496.669 76.1378 495.825 76.7498 494.86 77.282L496.189 80.406L493.509 81.5541L492.172 78.4597C491.203 78.7695 490.207 78.9454 489.194 79.0062C488.182 79.067 487.217 78.9507 486.288 78.6386C485.359 78.3265 484.497 77.8266 483.709 77.1093C482.92 76.3919 482.251 75.4061 481.72 74.141L486.599 72.0478C486.924 72.7833 487.288 73.3712 487.719 73.7713C488.131 74.1821 488.593 74.4641 489.076 74.6093C489.559 74.7546 490.036 74.8033 490.534 74.7154C491.043 74.6461 491.508 74.502 491.971 74.3097C492.49 74.085 492.928 73.807 493.278 73.5053C493.628 73.2036 493.878 72.8595 494.051 72.5104C494.223 72.1613 494.307 71.7884 494.284 71.4026C494.253 71.0464 494.163 70.6743 494.003 70.2677Z" fill="#17547F"/>
<path d="M0 312C0 312 254.335 302.561 371.377 272.188C488.42 241.815 600 253.019 600 253.019V312H0Z" fill="#FFF6D6"/>
<path fill-rule="evenodd" clip-rule="evenodd" d="M391.011 50.3408C388.572 46.5653 391.289 41.3855 395.912 40.9965L431.275 38.0208C435.294 37.6825 438.326 41.2574 437.334 45.1648L426.813 86.601C425.502 91.7627 418.653 93.1375 415.853 88.8012L408.19 76.9382C407.951 77.15 407.692 77.346 407.414 77.5234L289.191 152.921C286.004 154.953 281.778 153.669 280.373 150.241L268.905 122.272C267.495 118.832 263.272 117.543 260.092 119.608C255.319 122.709 248.654 127.045 241.306 131.826C223.331 143.522 201.273 157.873 192.864 163.271C184.644 168.546 177.797 172.939 172.081 176.597C170.519 177.596 168.593 177.841 166.851 177.261L151.711 172.228C146.92 170.635 146.196 164.212 150.499 161.475C169.859 149.16 206.137 125.836 232.27 108.987L277.556 79.0773C280.848 76.9025 285.284 78.3355 286.564 81.9872L297.098 112.049C298.36 115.648 302.699 117.105 305.992 115.033L395.762 58.5631C395.896 58.4788 396.032 58.4002 396.17 58.3274L391.011 50.3408Z" fill="url(#paint0_linear)"/>
<path fill-rule="evenodd" clip-rule="evenodd" d="M384.904 42.2695C382.403 38.5353 385.033 33.3108 389.648 32.8447L424.957 29.2787C428.97 28.8734 432.061 32.3972 431.135 36.3206L421.306 77.9267C420.082 83.1096 413.258 84.5986 410.385 80.3097L403.823 70.5142L286.397 143.212C283.241 145.166 279.109 143.911 277.681 140.564L265.576 112.19C264.143 108.831 260.014 107.57 256.863 109.558C252.02 112.612 245.193 116.926 237.656 121.688C219.461 133.184 197.133 147.292 188.621 152.597C180.275 157.797 173.327 162.125 167.529 165.726C165.979 166.689 164.084 166.917 162.369 166.347L146.771 161.161C141.943 159.556 141.255 153.063 145.627 150.363C165.263 138.237 201.867 115.388 228.254 98.8705L274.291 69.3346C277.556 67.2403 281.896 68.6422 283.204 72.2132L294.357 102.678C295.646 106.197 299.89 107.621 303.153 105.63L391.3 51.8173L384.904 42.2695Z" fill="url(#paint1_linear)"/>
<path d="M600 251.574C600 251.574 321.276 227.98 186.5 169.817C51.7242 111.655 0 232.613 0 232.613V312H600V251.574Z" fill="url(#paint2_linear)"/>
<path d="M51.7384 248L44 253.869L49.8692 261.608L57.6076 255.738L51.7384 248Z" stroke="#EB6767" stroke-width="3" stroke-linejoin="round"/>
<path d="M0 263.8C0 263.8 155 295.158 315.5 227.774C476 160.39 600 208.883 600 208.883V312H0V263.8Z" fill="#FFCC79"/>
<ellipse opacity="0.3" cx="298.159" cy="275.611" rx="75.9997" ry="9.3882" fill="#B87100"/>
<path d="M390.325 263.236H208.61C204.26 263.236 200.7 259.666 200.7 255.303V140.933C200.7 136.57 204.26 133 208.61 133H390.39C394.741 133 398.3 136.57 398.3 140.933V255.303C398.234 259.666 394.741 263.236 390.325 263.236Z" fill="#17547F"/>
<path d="M316.63 260.12L282.977 260.367L281.68 273.828H314.901C316.692 273.828 318.051 272.161 317.68 270.432L316.63 260.12Z" fill="#17547F"/>
<path d="M390.39 257.847H208.61C204.26 257.847 200.7 254.499 200.7 250.406V143.136C200.7 139.043 204.26 135.695 208.61 135.695H390.39C394.741 135.695 398.3 139.043 398.3 143.136V250.406C398.3 254.499 394.741 257.847 390.39 257.847Z" fill="#FFA81D"/>
<path d="M345.787 277.607H255.01C253.372 277.607 251.897 276.283 251.897 274.463C251.897 272.809 253.208 271.32 255.01 271.32H345.787C347.426 271.32 348.9 272.643 348.9 274.463C348.736 276.283 347.426 277.607 345.787 277.607Z" fill="#17547F"/>
<path d="M398.3 238.985H200.7V143.299C200.7 139.117 204.26 135.695 208.61 135.695H390.39C394.741 135.695 398.3 139.117 398.3 143.299V238.985Z" fill="white"/>
<path d="M380.975 144.402H216.161C213.4 144.402 211.161 146.64 211.161 149.402V228.815C211.161 231.577 213.4 233.815 216.161 233.815H380.975C383.736 233.815 385.975 231.577 385.975 228.815V149.402C385.975 146.64 383.736 144.402 380.975 144.402Z" fill="#F0F0F0"/>
<path d="M305.318 249.932C305.318 252.449 303.278 254.489 300.761 254.489C298.244 254.489 296.203 252.449 296.203 249.932C296.203 247.415 298.244 245.375 300.761 245.375C303.278 245.375 305.318 247.415 305.318 249.932Z" fill="white" stroke="#17547F" stroke-width="2"/>
<path d="M300.306 171.378C292.221 171.962 286.302 178.953 286.886 187.038C287.471 195.124 294.461 201.043 302.547 200.459C310.633 199.874 316.552 192.884 315.967 184.798C315.383 176.712 308.392 170.793 300.306 171.378ZM300.514 191.263C299.889 191.796 298.924 191.389 298.868 190.569L298.255 181.5C298.2 180.683 299.097 180.15 299.789 180.589L306.243 184.685C306.812 185.046 306.868 185.854 306.355 186.291L300.514 191.263Z" fill="#17547F"/>
<path opacity="0.5" d="M353.594 214.365H245.406C244.419 214.365 243.618 215.166 243.618 216.153C243.618 217.141 244.419 217.942 245.406 217.942H353.594C354.582 217.942 355.382 217.141 355.382 216.153C355.382 215.166 354.582 214.365 353.594 214.365Z" fill="#17547F"/>
<path d="M333.029 214.365H245.406C244.419 214.365 243.618 215.166 243.618 216.153C243.618 217.141 244.419 217.942 245.406 217.942H333.029C334.017 217.942 334.818 217.141 334.818 216.153C334.818 215.166 334.017 214.365 333.029 214.365Z" fill="#17547F"/>
<path d="M211.43 147.306C211.43 145.825 212.631 144.624 214.112 144.624H383.1C384.581 144.624 385.782 145.825 385.782 147.306H211.43Z" fill="#F0F0F0"/>
<path opacity="0.08" d="M530.215 191.22L472.51 191.023C470.506 191.016 468.877 192.635 468.87 194.638C468.863 196.642 470.482 198.272 472.485 198.279L530.191 198.476C532.194 198.483 533.824 196.864 533.831 194.861C533.838 192.857 532.219 191.227 530.215 191.22Z" fill="#141414"/>
<path d="M508.705 159.463C518.346 158.747 525.992 150.763 526.029 140.929L526.09 129.716L479.339 129.483L479.278 140.696C479.241 150.53 486.75 158.61 496.409 159.374C486.768 160.091 479.122 168.075 479.086 177.909L479.024 189.121L525.775 189.354L525.836 178.141C525.894 168.358 518.313 160.248 508.705 159.463Z" fill="white"/>
<path d="M503.604 155.72L499.804 155.7C499.252 155.698 498.802 156.143 498.799 156.695L498.76 164.299C498.757 164.851 499.202 165.301 499.755 165.304L503.555 165.323C504.108 165.326 504.558 164.881 504.56 164.328L504.599 156.725C504.602 156.173 504.157 155.723 503.604 155.72Z" fill="#17547F"/>
<path d="M532.336 122.449L473.541 122.248C472.436 122.244 471.538 123.137 471.534 124.241L471.523 127.445C471.519 128.549 472.411 129.448 473.516 129.451L532.312 129.653C533.416 129.656 534.315 128.764 534.319 127.659L534.33 124.456C534.333 123.352 533.441 122.453 532.336 122.449Z" fill="#FFA81D"/>
<path d="M535.208 188.569L467.726 188.338C466.622 188.335 465.723 189.227 465.719 190.332L465.705 194.531C465.701 195.636 466.593 196.534 467.698 196.538L535.18 196.769C536.284 196.773 537.183 195.88 537.187 194.776L537.201 190.576C537.205 189.472 536.312 188.573 535.208 188.569Z" fill="#FFA81D"/>
<path d="M500.229 151.407C491.998 151.373 485.364 144.721 485.399 136.49L485.397 134.331C485.395 133.224 486.295 132.326 487.402 132.329L513.15 132.404C514.251 132.408 515.143 133.301 515.144 134.402L515.146 136.576C515.163 144.786 508.46 151.441 500.229 151.407Z" fill="#17547F"/>
<path d="M503.056 168.403C502.313 167.77 501.223 167.766 500.475 168.392L487.5 179.264C486.071 180.462 486.913 182.79 488.777 182.797L514.636 182.893C516.5 182.9 517.359 180.579 515.94 179.37L503.056 168.403Z" fill="#17547F"/>
<path d="M116.635 144.972C112.127 136.111 101.289 132.584 92.4293 137.092C83.5691 141.6 80.0413 152.438 84.5497 161.298C89.0581 170.158 99.8955 173.686 108.756 169.178C117.616 164.669 121.144 153.832 116.635 144.972Z" fill="#FFA81D"/>
<path d="M115.299 145.851C110.853 136.96 100.042 133.357 91.151 137.803C82.2603 142.249 78.6571 153.06 83.103 161.951C87.5489 170.842 98.3603 174.445 107.251 169.999C116.142 165.553 119.745 154.741 115.299 145.851Z" fill="#FFD43B"/>
<path d="M107.133 168.499C103.28 170.588 98.8397 171.054 94.645 169.809C90.4503 168.565 86.982 165.753 84.8923 161.9C82.8026 158.047 82.3372 153.607 83.5818 149.412C84.8263 145.217 87.6381 141.749 91.4908 139.659C95.3436 137.57 99.7842 137.104 103.979 138.349C108.174 139.593 111.642 142.405 113.732 146.258C115.821 150.111 116.287 154.551 115.042 158.746C113.783 162.948 110.986 166.409 107.133 168.499ZM91.9595 140.523C84.4805 144.58 81.6998 153.953 85.7564 161.431C89.8129 168.91 99.1854 171.691 106.664 167.635C114.143 163.578 116.924 154.206 112.868 146.727C108.811 139.248 99.4243 136.475 91.9595 140.523Z" fill="#FFA412"/>
<path d="M102.432 156.354C102.339 156.108 102.216 155.906 102.078 155.752C101.941 155.598 101.752 155.472 101.542 155.383C101.333 155.295 101.072 155.235 100.775 155.208C100.478 155.181 100.123 155.171 99.7321 155.195C99.0347 155.224 98.3893 155.224 97.8007 155.18C97.2016 155.142 96.6744 155.038 96.1983 154.879C95.7165 154.71 95.301 154.465 94.9461 154.133C94.5911 153.801 94.2959 153.355 94.0652 152.781C93.8691 152.296 93.7787 151.807 93.7893 151.33C93.7998 150.854 93.9066 150.406 94.1143 149.971C94.3115 149.541 94.605 149.139 94.9842 148.772C95.3634 148.405 95.8181 148.078 96.3594 147.811L95.6202 145.953L97.1134 145.358L97.8638 147.237C98.4303 147.092 98.9682 147.042 99.488 147.083C100.008 147.124 100.493 147.25 100.935 147.468C101.376 147.686 101.772 147.996 102.124 148.397C102.476 148.798 102.767 149.285 102.998 149.859L100.299 150.933C100.016 150.239 99.6628 149.786 99.2161 149.557C98.775 149.339 98.2881 149.334 97.7763 149.531C97.4996 149.641 97.2662 149.781 97.0969 149.94C96.9276 150.099 96.8064 150.272 96.7229 150.465C96.6499 150.653 96.6088 150.85 96.6263 151.056C96.6333 151.267 96.6828 151.483 96.7691 151.691C96.8554 151.9 96.9569 152.087 97.0943 152.241C97.226 152.385 97.3994 152.506 97.6086 152.594C97.8179 152.683 98.0791 152.743 98.3763 152.77C98.6734 152.797 99.0442 152.811 99.483 152.802C100.176 152.789 100.816 152.805 101.41 152.833C101.998 152.876 102.536 152.975 103.007 153.15C103.489 153.319 103.905 153.564 104.259 153.896C104.614 154.228 104.91 154.673 105.135 155.237C105.342 155.743 105.432 156.232 105.412 156.714C105.401 157.191 105.284 157.644 105.081 158.064C104.878 158.483 104.579 158.874 104.189 159.247C103.804 159.604 103.334 159.926 102.798 160.203L103.48 161.931L101.997 162.52L101.311 160.808C100.776 160.964 100.229 161.045 99.6739 161.064C99.119 161.082 98.5927 161.005 98.0893 160.82C97.5859 160.636 97.1214 160.35 96.7005 159.946C96.2797 159.542 95.9281 158.993 95.6562 158.293L98.3554 157.219C98.5224 157.627 98.7131 157.953 98.9428 158.179C99.1621 158.409 99.4109 158.57 99.673 158.657C99.9351 158.743 100.195 158.777 100.469 158.736C100.748 158.706 101.005 158.634 101.261 158.535C101.548 158.42 101.792 158.274 101.988 158.114C102.184 157.954 102.325 157.77 102.425 157.581C102.525 157.393 102.576 157.19 102.569 156.978C102.557 156.783 102.513 156.578 102.432 156.354Z" fill="#17547F"/>
<path opacity="0.3" d="M440.033 296.223C438.728 294.99 437.924 293.327 437.778 291.471C437.581 287.757 440.425 284.744 444.143 284.727L572.148 284.727C575.866 284.711 579.275 287.757 579.473 291.47C579.67 295.184 575.866 297.761 572.148 297.778L444.857 298.153C443 298.209 441.339 297.455 440.033 296.223Z" fill="#FFA81D"/>
<path d="M457.949 206.275L452.275 203L449 208.673L454.673 211.949L457.949 206.275Z" stroke="#EB6767" stroke-width="3" stroke-linejoin="round"/>
<defs>
<linearGradient id="paint0_linear" x1="394.5" y1="86" x2="154.603" y2="146.827" gradientUnits="userSpaceOnUse">
<stop stop-color="#17547F"/>
<stop offset="1" stop-color="#17547F" stop-opacity="0.7"/>
</linearGradient>
<linearGradient id="paint1_linear" x1="430.517" y1="33.5966" x2="173.302" y2="123.009" gradientUnits="userSpaceOnUse">
<stop stop-color="#FFA81D"/>
<stop offset="1" stop-color="#FFB743"/>
</linearGradient>
<linearGradient id="paint2_linear" x1="139.5" y1="169.255" x2="214.119" y2="338.596" gradientUnits="userSpaceOnUse">
<stop stop-color="#FFF6D6"/>
<stop offset="1" stop-color="#FFD43B"/>
</linearGradient>
</defs>
</svg>
