<svg width="600" height="313" viewBox="0 0 600 313" fill="none" xmlns="http://www.w3.org/2000/svg">
<path d="M0 6C0 2.6863 2.68629 0 6 0H594C597.314 0 600 2.68629 600 6V312H0V6Z" fill="white"/>
<path opacity="0.2" d="M0 6C0 2.6863 2.68629 0 6 0H594C597.314 0 600 2.68629 600 6V312H0V6Z" fill="#FFA81D"/>
<mask id="mask0" mask-type="alpha" maskUnits="userSpaceOnUse" x="0" y="0" width="600" height="312">
<path d="M0 6C0 2.6863 2.68629 0 6 0H594C597.314 0 600 2.68629 600 6V312H0V6Z" fill="#FFA81D"/>
</mask>
<g mask="url(#mask0)">
<path d="M0 78.7559C0 78.7559 155.258 -26.7136 316.026 14.3457C476.793 55.4049 601 25.8569 601 25.8569V-36.9758H0V78.7559Z" fill="#FFC645"/>
<path opacity="0.1" d="M561.011 174.714C559.971 173.788 559.37 172.541 559.33 171.152C559.33 168.374 561.851 166.13 564.971 166.13L634.583 166.13C637.704 166.13 640.224 168.374 640.224 171.152C640.224 173.93 637.704 176.174 634.583 176.174L564.971 176.174C563.411 176.21 562.051 175.64 561.011 174.714Z" fill="#FFA81D"/>
<path opacity="0.1" d="M-56.03 155.891C-57.5783 154.513 -58.4716 152.658 -58.5311 150.59C-58.5311 146.455 -54.7794 143.115 -50.1344 143.115H53.485C58.13 143.115 61.8817 146.455 61.8817 150.59C61.8817 154.725 58.13 158.065 53.485 158.065H-50.1344C-52.4569 158.118 -54.4816 157.27 -56.03 155.891Z" fill="#FFA81D"/>
</g>
<path d="M464.04 147.219L458.219 150.225L461.225 156.046L467.045 153.04L464.04 147.219Z" stroke="#EB6767" stroke-width="3" stroke-linejoin="round"/>
<path d="M531.866 41.0001L524 45.373L528.373 53.2392L536.239 48.8663L531.866 41.0001Z" stroke="#178FAC" stroke-width="3" stroke-linejoin="round"/>
<path d="M45.7384 81.9999L38 87.8691L43.8692 95.6076L51.6076 89.7384L45.7384 81.9999Z" stroke="#EB6767" stroke-width="3" stroke-linejoin="round"/>
<path d="M600 261.004C600 261.004 321.276 241.09 186.5 192C51.7242 142.91 0 245 0 245V312.004H600V261.004Z" fill="#FFCC79"/>
<path d="M600 265.725C600 265.725 321.276 247.656 186.5 203.113C51.7242 158.571 0 251.204 0 251.204V312H600V265.725Z" fill="#FFF6D6"/>
<path d="M0 273.841C0 273.841 155 298.667 315.5 245.321C476 191.976 600 230.365 600 230.365V312H0V273.841Z" fill="#FFCC79"/>
<path d="M0 312C0 312 254.335 302.561 371.377 272.188C488.42 241.815 600 253.019 600 253.019V312H0Z" fill="#FFF6D6"/>
<rect x="243" y="144" width="17" height="5" rx="2.5" fill="#FAFAFA"/>
<rect x="340" y="144" width="17" height="5" rx="2.5" fill="#FAFAFA"/>
<circle cx="502" cy="264" r="5" fill="white"/>
<circle cx="541.5" cy="222.5" r="9.5" fill="white"/>
<circle cx="105" cy="35" r="4" fill="white"/>
<circle cx="85" cy="211" r="6" fill="white"/>
<circle opacity="0.1" cx="541" cy="172" r="6" fill="#FFA81D"/>
<path opacity="0.1" d="M377.176 102.621C376.093 101.538 375.477 100.071 375.451 98.4304C375.484 95.1481 378.161 92.4705 381.444 92.4377L454.664 91.7062C457.946 91.6734 460.571 94.298 460.538 97.5803C460.505 100.863 457.828 103.54 454.546 103.573L381.325 104.304C379.684 104.363 378.26 103.704 377.176 102.621Z" fill="#FFA81D"/>
<path opacity="0.1" d="M135.836 165.836C134.919 164.919 134.377 163.698 134.317 162.348C134.267 159.65 136.406 157.511 139.105 157.561L199.308 158.69C202.007 158.741 204.227 160.961 204.278 163.66C204.328 166.359 202.19 168.498 199.491 168.447L139.287 167.318C137.939 167.328 136.752 166.752 135.836 165.836Z" fill="#FFA81D"/>
<path d="M155.659 147.656C152.356 141.571 144.745 139.315 138.659 142.618C132.573 145.922 130.318 153.533 133.621 159.619C136.925 165.704 144.536 167.96 150.622 164.656C156.707 161.353 158.963 153.742 155.659 147.656Z" fill="#FFA81D"/>
<path d="M154.745 148.294C151.485 142.186 143.89 139.877 137.782 143.138C131.674 146.398 129.366 153.993 132.626 160.101C135.886 166.209 143.481 168.517 149.589 165.257C155.697 161.996 158.006 154.402 154.745 148.294Z" fill="#FFB93E"/>
<path d="M149.479 164.214C146.835 165.74 143.752 166.146 140.808 165.358C137.864 164.569 135.397 162.675 133.871 160.031C132.344 157.388 131.938 154.304 132.727 151.36C133.516 148.417 135.409 145.95 138.053 144.423C140.697 142.897 143.78 142.49 146.724 143.279C149.668 144.068 152.135 145.962 153.661 148.605C155.188 151.249 155.594 154.333 154.805 157.276C154.007 160.226 152.123 162.687 149.479 164.214ZM138.395 145.016C133.263 147.979 131.501 154.557 134.464 159.689C137.427 164.821 144.005 166.584 149.137 163.621C154.269 160.658 156.032 154.08 153.068 148.948C150.105 143.815 143.518 142.059 138.395 145.016Z" fill="#FFA412"/>
<path d="M146.086 155.917C146.013 155.739 145.919 155.594 145.816 155.484C145.713 155.375 145.572 155.286 145.418 155.226C145.264 155.166 145.072 155.127 144.855 155.113C144.637 155.099 144.378 155.099 144.094 155.124C143.585 155.158 143.115 155.171 142.684 155.151C142.246 155.134 141.86 155.069 141.509 154.962C141.155 154.848 140.847 154.677 140.581 154.442C140.316 154.206 140.092 153.887 139.912 153.473C139.76 153.123 139.684 152.768 139.683 152.42C139.681 152.072 139.75 151.743 139.893 151.421C140.029 151.104 140.235 150.806 140.505 150.53C140.774 150.255 141.1 150.008 141.49 149.802L140.914 148.461L141.992 147.998L142.576 149.355C142.986 149.237 143.378 149.19 143.758 149.21C144.138 149.23 144.495 149.313 144.821 149.463C145.147 149.614 145.442 149.832 145.707 150.118C145.971 150.403 146.193 150.753 146.373 151.168L144.424 152.004C144.205 151.503 143.938 151.179 143.608 151.021C143.282 150.87 142.926 150.876 142.557 151.03C142.357 151.115 142.189 151.222 142.069 151.341C141.949 151.46 141.864 151.589 141.806 151.732C141.757 151.87 141.731 152.015 141.747 152.164C141.757 152.319 141.797 152.475 141.864 152.625C141.931 152.776 142.009 152.91 142.112 153.02C142.211 153.122 142.339 153.207 142.494 153.268C142.648 153.328 142.84 153.367 143.057 153.381C143.275 153.395 143.545 153.398 143.865 153.383C144.37 153.36 144.838 153.359 145.272 153.368C145.702 153.388 146.096 153.45 146.443 153.568C146.798 153.682 147.106 153.853 147.371 154.088C147.637 154.324 147.861 154.643 148.036 155.05C148.197 155.415 148.273 155.77 148.267 156.122C148.268 156.47 148.192 156.803 148.052 157.113C147.912 157.423 147.701 157.714 147.424 157.993C147.15 158.261 146.813 158.506 146.428 158.718L146.959 159.966L145.889 160.424L145.354 159.189C144.967 159.312 144.57 159.383 144.165 159.407C143.761 159.431 143.375 159.385 143.004 159.26C142.633 159.135 142.289 158.936 141.974 158.649C141.659 158.363 141.392 157.969 141.18 157.464L143.129 156.628C143.258 156.921 143.404 157.156 143.576 157.316C143.74 157.48 143.925 157.593 144.118 157.651C144.311 157.709 144.501 157.728 144.7 157.693C144.903 157.665 145.089 157.608 145.274 157.531C145.481 157.441 145.656 157.33 145.796 157.21C145.936 157.089 146.036 156.952 146.105 156.812C146.174 156.673 146.207 156.524 146.198 156.37C146.186 156.228 146.15 156.079 146.086 155.917Z" fill="#178FAC"/>
<path d="M124.626 123.243C127.047 115.072 122.386 106.486 114.216 104.065C106.045 101.644 97.459 106.304 95.0378 114.475C92.6166 122.645 97.2773 131.232 105.448 133.653C113.618 136.074 122.205 131.413 124.626 123.243Z" fill="#FFA81D"/>
<path d="M123.276 123.001C125.754 114.849 121.154 106.231 113.001 103.753C104.849 101.275 96.2309 105.875 93.7528 114.027C91.2747 122.18 95.8749 130.798 104.028 133.276C112.18 135.754 120.798 131.154 123.276 123.001Z" fill="#FFB93E"/>
<path d="M104.839 132.273C101.21 131.301 98.1735 128.971 96.2982 125.723C94.4228 122.475 93.9238 118.68 94.8962 115.051C95.8686 111.422 98.1981 108.385 101.446 106.51C104.694 104.634 108.489 104.135 112.118 105.108C115.747 106.08 118.784 108.41 120.659 111.658C122.535 114.906 123.034 118.701 122.061 122.33C121.089 125.959 118.759 128.996 115.511 130.871C112.25 132.743 108.469 133.245 104.839 132.273ZM111.9 105.922C104.855 104.034 97.5977 108.224 95.7101 115.269C93.8224 122.314 98.0126 129.571 105.057 131.459C112.102 133.347 119.36 129.157 121.248 122.112C123.135 115.067 118.932 107.806 111.9 105.922Z" fill="#FFA412"/>
<path d="M109.078 121.945C109.165 121.737 109.208 121.539 109.213 121.362C109.219 121.185 109.175 120.995 109.097 120.817C109.019 120.638 108.892 120.447 108.723 120.255C108.554 120.063 108.339 119.848 108.082 119.632C107.631 119.238 107.23 118.858 106.889 118.483C106.539 118.106 106.273 117.731 106.07 117.351C105.87 116.962 105.756 116.564 105.731 116.148C105.706 115.732 105.785 115.281 105.98 114.788C106.145 114.37 106.377 114.013 106.665 113.723C106.952 113.433 107.283 113.217 107.669 113.069C108.045 112.918 108.464 112.841 108.917 112.836C109.369 112.832 109.845 112.896 110.339 113.05L110.975 111.457L112.255 111.968L111.613 113.58C112.052 113.823 112.415 114.11 112.715 114.442C113.014 114.774 113.241 115.139 113.387 115.535C113.533 115.93 113.597 116.357 113.579 116.814C113.562 117.271 113.456 117.746 113.26 118.239L110.948 117.315C111.182 116.717 111.229 116.226 111.086 115.82C110.94 115.425 110.641 115.134 110.206 114.955C109.969 114.86 109.741 114.809 109.542 114.809C109.343 114.808 109.165 114.844 109 114.915C108.843 114.989 108.702 115.087 108.591 115.225C108.471 115.361 108.375 115.524 108.305 115.705C108.236 115.885 108.189 116.062 108.183 116.239C108.18 116.406 108.217 116.583 108.295 116.762C108.373 116.94 108.5 117.131 108.669 117.324C108.838 117.516 109.06 117.743 109.339 117.996C109.777 118.397 110.166 118.784 110.519 119.152C110.859 119.526 111.136 119.904 111.326 120.291C111.526 120.68 111.639 121.078 111.664 121.494C111.689 121.91 111.61 122.361 111.418 122.844C111.248 123.282 111.016 123.639 110.719 123.927C110.431 124.217 110.091 124.43 109.717 124.571C109.344 124.712 108.927 124.779 108.465 124.781C108.015 124.776 107.532 124.699 107.035 124.555L106.44 126.033L105.171 125.525L105.753 124.055C105.329 123.836 104.94 123.564 104.584 123.248C104.228 122.932 103.947 122.574 103.742 122.162C103.538 121.751 103.418 121.299 103.394 120.799C103.37 120.3 103.476 119.751 103.719 119.155L106.032 120.079C105.895 120.431 105.821 120.747 105.831 121.022C105.832 121.295 105.891 121.542 106.003 121.75C106.115 121.959 106.258 122.133 106.452 122.269C106.644 122.415 106.846 122.522 107.063 122.611C107.31 122.709 107.547 122.762 107.764 122.778C107.98 122.794 108.177 122.763 108.35 122.704C108.523 122.646 108.674 122.55 108.795 122.414C108.903 122.286 108.996 122.133 109.078 121.945Z" fill="#178FAC"/>
<path d="M146.286 58.4055C141.354 49.3186 129.989 45.9508 120.902 50.8833C111.815 55.8157 108.448 67.1806 113.38 76.2675C118.312 85.3543 129.677 88.7222 138.764 83.7897C147.851 78.8572 151.219 67.4923 146.286 58.4055Z" fill="#FFA81D"/>
<path d="M144.921 59.356C140.053 50.2357 128.713 46.7888 119.593 51.6571C110.472 56.5254 107.026 67.8655 111.894 76.9858C116.762 86.1061 128.102 89.553 137.222 84.6846C146.343 79.8163 149.79 68.4763 144.921 59.356Z" fill="#FFB93E"/>
<path d="M137.058 83.1277C133.111 85.407 128.507 86.0137 124.111 84.8359C119.716 83.6581 116.032 80.8308 113.753 76.883C111.474 72.9353 110.867 68.3315 112.045 63.9359C113.222 59.5404 116.05 55.8567 119.998 53.5775C123.945 51.2982 128.549 50.6915 132.945 51.8693C137.34 53.0471 141.024 55.8744 143.303 59.8222C145.582 63.77 146.189 68.3738 145.011 72.7693C143.819 77.1732 141.006 80.8485 137.058 83.1277ZM120.509 54.4628C112.845 58.8873 110.214 68.7086 114.638 76.3719C119.063 84.0352 128.884 86.6668 136.547 82.2424C144.211 77.818 146.842 67.9967 142.418 60.3334C137.993 52.67 128.157 50.0468 120.509 54.4628Z" fill="#FFA412"/>
<path d="M133.032 71.4614C132.891 71.117 132.709 70.8351 132.508 70.6219C132.308 70.4086 132.035 70.2373 131.735 70.1202C131.435 70.003 131.063 69.9277 130.641 69.9005C130.219 69.8733 129.715 69.8735 129.163 69.9217C128.176 69.9884 127.261 70.0133 126.425 69.9733C125.575 69.9418 124.824 69.8142 124.143 69.6073C123.454 69.3858 122.856 69.0538 122.341 68.5967C121.825 68.1396 121.39 67.52 121.041 66.715C120.745 66.0345 120.599 65.345 120.596 64.6694C120.593 63.9938 120.727 63.3551 121.005 62.7302C121.268 62.1137 121.669 61.534 122.192 60.9996C122.716 60.4651 123.348 59.9841 124.105 59.5858L122.987 56.9799L125.081 56.0809L126.215 58.7158C127.012 58.4878 127.773 58.3971 128.511 58.4354C129.249 58.4736 129.942 58.6348 130.575 58.9272C131.208 59.2195 131.782 59.6431 132.296 60.1979C132.81 60.7527 133.241 61.4326 133.589 62.2376L129.805 63.8614C129.379 62.8883 128.86 62.2587 128.219 61.9518C127.586 61.6595 126.895 61.6708 126.178 61.9692C125.79 62.1352 125.464 62.3424 125.23 62.5742C124.996 62.806 124.831 63.0562 124.72 63.3331C124.624 63.6017 124.573 63.8826 124.605 64.1734C124.623 64.4727 124.702 64.7759 124.832 65.0684C124.962 65.3609 125.113 65.6222 125.313 65.8354C125.506 66.0341 125.756 66.1993 126.056 66.3164C126.355 66.4336 126.728 66.5088 127.15 66.536C127.572 66.5633 128.098 66.5692 128.719 66.5394C129.7 66.4956 130.609 66.4936 131.451 66.5106C132.287 66.5506 133.052 66.6698 133.727 66.8996C134.416 67.1211 135.014 67.4531 135.529 67.9102C136.045 68.3673 136.48 68.9869 136.82 69.7774C137.133 70.4869 137.28 71.1764 137.268 71.8604C137.271 72.5359 137.122 73.1831 136.85 73.7851C136.579 74.387 136.17 74.9522 135.632 75.4951C135.1 76.015 134.445 76.4898 133.696 76.9027L134.728 79.3261L132.649 80.2167L131.611 77.8162C130.86 78.0565 130.087 78.193 129.302 78.2402C128.516 78.2873 127.767 78.1971 127.047 77.955C126.327 77.7129 125.658 77.3251 125.046 76.7687C124.435 76.2122 123.916 75.4475 123.504 74.466L127.288 72.8423C127.54 73.4129 127.823 73.8689 128.157 74.1792C128.476 74.498 128.835 74.7167 129.21 74.8294C129.584 74.942 129.954 74.9799 130.341 74.9116C130.735 74.8579 131.097 74.7461 131.456 74.5969C131.858 74.4226 132.198 74.207 132.469 73.9729C132.741 73.7389 132.935 73.472 133.069 73.2012C133.203 72.9303 133.268 72.6411 133.25 72.3418C133.226 72.0655 133.156 71.7768 133.032 71.4614Z" fill="#178FAC"/>
<ellipse opacity="0.3" cx="299" cy="250.5" rx="85" ry="10.5" fill="#B87100"/>
<path d="M402.08 236.659H198.846C193.981 236.659 190 232.666 190 227.786V99.8726C190 94.9927 193.981 91 198.846 91H402.154C407.019 91 411 94.9927 411 99.8726V227.786C410.926 232.666 407.019 236.659 402.08 236.659Z" fill="#17547F"/>
<path d="M319.659 233.174L282.02 233.451L280.57 248.506H317.725C319.728 248.506 321.247 246.641 320.833 244.708L319.659 233.174Z" fill="#17547F"/>
<path d="M402.154 230.632H198.846C193.981 230.632 190 226.887 190 222.31V102.336C190 97.7585 193.981 94.0137 198.846 94.0137H402.154C407.019 94.0137 411 97.7585 411 102.336V222.31C411 226.887 407.019 230.632 402.154 230.632Z" fill="#FFA81D"/>
<path d="M352.268 252.732H250.741C248.908 252.732 247.259 251.252 247.259 249.216C247.259 247.366 248.725 245.7 250.741 245.7H352.268C354.101 245.7 355.75 247.181 355.75 249.216C355.567 251.252 354.101 252.732 352.268 252.732Z" fill="#17547F"/>
<path d="M411 209.536H190V102.518C190 97.8408 193.981 94.0137 198.846 94.0137H402.154C407.019 94.0137 411 97.8408 411 102.518V209.536Z" fill="white"/>
<path d="M392.216 103.751H206.7C203.939 103.751 201.7 105.99 201.7 108.751V198.754C201.7 201.515 203.939 203.754 206.7 203.754H392.216C394.977 203.754 397.216 201.515 397.216 198.754V108.751C397.216 105.99 394.977 103.751 392.216 103.751Z" fill="#FFF6D6"/>
<path d="M307.126 221.779C307.126 224.66 304.79 226.995 301.91 226.995C299.029 226.995 296.694 224.66 296.694 221.779C296.694 218.899 299.029 216.563 301.91 216.563C304.79 216.563 307.126 218.899 307.126 221.779Z" fill="white" stroke="#17547F" stroke-width="2"/>
<path d="M301.402 133.924C292.359 134.577 285.739 142.396 286.393 151.439C287.046 160.482 294.865 167.102 303.908 166.448C312.952 165.795 319.571 157.976 318.918 148.933C318.264 139.89 310.446 133.27 301.402 133.924ZM301.456 156.317C300.83 156.849 299.865 156.442 299.81 155.623L299.092 145.012C299.037 144.194 299.934 143.661 300.626 144.1L308.178 148.893C308.746 149.254 308.803 150.062 308.29 150.499L301.456 156.317Z" fill="#17547F"/>
<path opacity="0.5" d="M361 182H240C238.895 182 238 182.895 238 184C238 185.105 238.895 186 240 186H361C362.105 186 363 185.105 363 184C363 182.895 362.105 182 361 182Z" fill="#17547F"/>
<path d="M338 182H240C238.895 182 238 182.895 238 184C238 185.105 238.895 186 240 186H338C339.105 186 340 185.105 340 184C340 182.895 339.105 182 338 182Z" fill="#17547F"/>
<path d="M448.337 56.1742C446.315 59.628 445.696 63.5138 446.302 67.1688C446.822 70.3188 446.272 73.5512 444.675 76.3187L442.373 80.3046C441.722 81.4336 441.534 82.7046 441.753 83.9023C442.022 85.3882 442.916 86.7512 444.318 87.5608L451.68 91.8115C454.211 93.2729 457.475 92.3984 458.936 89.8672L461.235 85.8866C462.829 83.1244 465.343 81.0258 468.328 79.9064C471.777 78.6138 474.818 76.1611 476.804 72.7215C480.733 65.9156 479.251 57.4701 473.689 52.3685C473.53 52.2203 473.373 52.0805 473.207 51.9429C473.116 51.8695 473.034 51.7939 472.943 51.7206C472.278 51.1753 471.55 50.6779 470.783 50.2353C462.916 45.6935 452.926 48.3349 448.337 56.1742Z" fill="#FFA81D"/>
<path d="M444.344 87.5751L444.29 87.705L443.595 89.3694L443.411 89.8093L443.408 89.8145L443.224 90.2545L442.529 91.9189L442.345 92.3588L442.342 92.364L442.158 92.804L442.06 93.048C441.71 93.8963 442.262 95.0134 443.333 95.6319L445.765 97.0357C446.022 97.1843 446.282 97.2922 446.549 97.3626C446.788 97.4231 447.022 97.4535 447.248 97.4507L447.261 97.4515C447.443 97.4516 447.624 97.4298 447.79 97.3854C448.129 97.2944 448.425 97.122 448.625 96.8597L449.055 96.3095L449.326 95.9617L449.332 95.9512L449.6 95.6087L450.635 94.2881L450.906 93.9403L450.912 93.9298L451.18 93.5872L452.298 92.1602L444.347 87.5698L444.344 87.5751Z" fill="#178FAC"/>
<path d="M445.305 88.1306L445.321 88.1397L446.676 88.922C448.516 90.8391 450.342 92.7335 451.192 93.6023L450.924 93.9448L450.918 93.9553L450.648 94.3031C449.954 93.6013 448.312 91.8971 444.292 87.714L444.346 87.5841L445.302 88.1359L445.305 88.1306Z" fill="#233862"/>
<path d="M449.342 95.9576L449.336 95.9681L449.065 96.3159C448.269 95.4993 446.63 93.8035 443.229 90.2578L443.413 89.8179L443.416 89.8127L443.6 89.3727C445.754 91.6101 448.357 94.3174 449.615 95.6181L449.342 95.9576Z" fill="#233862"/>
<path d="M447.266 97.4556L447.253 97.4548C447.027 97.4576 446.793 97.4272 446.554 97.3667C445.621 96.4006 444.235 94.9563 442.174 92.8141L442.358 92.3742L442.361 92.3689L442.545 91.929C444.386 93.8461 446.496 96.0374 447.8 97.3926C447.632 97.4287 447.457 97.4535 447.266 97.4556Z" fill="#233862"/>
<path d="M463.889 74.4688L464.464 74.9443L450.842 91.4023L450.268 90.9267L463.889 74.4688Z" fill="white"/>
<path d="M453.16 68.6442L446.079 88.4976L445.376 88.247L452.458 68.3936L453.16 68.6442Z" fill="white"/>
<path d="M454.771 73.8415C454.855 73.89 454.95 73.9311 455.067 73.9707C455.262 74.034 455.442 73.9769 455.582 73.806C455.889 73.4441 456.002 72.5217 455.916 71.6391C456.381 71.3682 456.884 71.211 457.265 71.3044C457.827 71.4333 458.305 72.3041 458.49 73.1601C458.32 73.2368 458.154 73.3301 458.001 73.4242C457.454 73.7662 456.898 74.2925 456.988 74.7299C457.019 74.8947 457.159 75.1014 457.629 75.184C458.219 75.2792 458.628 74.9696 458.756 74.3361C458.818 74.022 458.81 73.6602 458.751 73.2899C459.442 73.0026 460.2 72.915 460.689 73.2812C460.946 73.4787 461.133 73.7127 461.248 73.9614C460.554 74.387 460.026 75.1323 460.011 75.691C460.002 76.0708 460.224 76.3178 460.64 76.3971C460.938 76.4503 461.258 76.187 461.463 75.7238C461.673 75.2502 461.729 74.6314 461.533 74.0627C461.732 73.9605 461.934 73.8885 462.145 73.8631C463.446 73.6831 463.758 74.8646 463.772 74.9143L463.992 74.8596C463.988 74.843 463.616 73.4379 462.117 73.6441C461.89 73.6739 461.663 73.7526 461.452 73.8623C461.32 73.5826 461.118 73.326 460.829 73.1104C460.289 72.7003 459.461 72.7756 458.715 73.0731C458.507 72.1478 457.972 71.2436 457.323 71.0933C456.911 70.9952 456.391 71.1433 455.9 71.4127C455.839 70.9716 455.734 70.5605 455.576 70.2386C455.321 69.7343 455.025 69.6405 454.815 69.6524C454.606 69.6642 454.39 69.7219 454.194 69.8188C454.131 69.6493 454.045 69.4947 453.956 69.359C453.619 68.8498 453.177 68.6222 452.71 68.7028L452.751 68.9226C453.259 68.8309 453.607 69.2348 453.772 69.4837C453.861 69.6195 453.936 69.768 453.997 69.9293C453.355 70.3145 452.873 71.0163 452.842 71.4818C452.827 71.7743 452.981 71.9683 453.269 72.0154C453.785 72.1035 454.06 71.87 454.195 71.6608C454.459 71.2528 454.443 70.6134 454.268 70.0433C454.452 69.9538 454.641 69.8945 454.829 69.8841C455.082 69.8694 455.265 70.1222 455.374 70.346C455.529 70.6596 455.636 71.0926 455.694 71.5388C455.078 71.9257 454.55 72.489 454.421 72.9675C454.348 73.1913 454.329 73.5868 454.771 73.8415ZM455.704 71.7758C455.768 72.5621 455.666 73.3574 455.406 73.6623C455.321 73.7605 455.236 73.7879 455.129 73.7544C454.694 73.6223 454.524 73.3703 454.621 73.0203C454.738 72.6116 455.186 72.1278 455.704 71.7758ZM458.538 73.3912C458.59 73.7149 458.595 74.033 458.541 74.2961C458.437 74.8168 458.146 75.0412 457.673 74.9638C457.482 74.9306 457.25 74.8597 457.213 74.6918C457.161 74.4306 457.535 73.9885 458.128 73.6165C458.258 73.5374 458.396 73.456 458.538 73.3912ZM461.333 74.1784C461.498 74.68 461.439 75.2198 461.256 75.6326C461.102 75.9847 460.861 76.2093 460.678 76.1739C460.38 76.1206 460.229 75.9568 460.234 75.6935C460.251 75.2273 460.723 74.5683 461.333 74.1784ZM454.06 70.1477C454.214 70.6703 454.197 71.2208 453.996 71.532C453.852 71.757 453.614 71.8432 453.293 71.7914C453.121 71.7621 453.043 71.6677 453.053 71.4917C453.077 71.0992 453.51 70.4949 454.06 70.1477Z" fill="white"/>
<path d="M460.255 51.4675C458.447 51.8942 457.421 54.0114 458.667 55.3332C459.605 56.3294 461.565 56.8519 463.242 55.8876C464.919 54.9233 465.218 53.5068 464.532 52.3192C463.845 51.1315 462.137 51.0209 460.255 51.4675Z" fill="white"/>
<path d="M478.75 47.0005C478.555 47.0005 478.368 46.907 478.219 46.7293C477.927 46.3645 477.927 45.7753 478.219 45.4106L484.727 37.274C485.018 36.9093 485.489 36.9093 485.781 37.274C486.073 37.6388 486.073 38.228 485.781 38.5927L479.273 46.7293C479.131 46.9163 478.944 47.0005 478.75 47.0005Z" fill="#FFA81D"/>
<path d="M482.611 49.3205C482.427 49.2159 482.295 49.0357 482.239 48.8041C482.139 48.3371 482.423 47.8361 482.876 47.6829L492.97 44.2665C493.423 44.1133 493.869 44.3669 493.97 44.834C494.07 45.3011 493.785 45.802 493.333 45.9552L483.238 49.3716C483.013 49.4542 482.795 49.4252 482.611 49.3205Z" fill="#EB6767"/>
<path d="M474.824 44.552C474.652 44.6761 474.434 44.7212 474.2 44.6757C473.733 44.5726 473.396 44.1055 473.445 43.6303L474.537 33.0293C474.586 32.5541 475.003 32.2535 475.469 32.3566C475.935 32.4597 476.273 32.9268 476.224 33.402L475.131 44.0031C475.113 44.242 474.996 44.428 474.824 44.552Z" fill="#EB6767"/>
<path d="M66.831 262.106L70.1064 256.433L64.4332 253.158L61.1577 258.831L66.831 262.106Z" stroke="#EB6767" stroke-width="3" stroke-linejoin="round"/>
<path d="M143.5 223L139 230.794L146.794 235.294L151.294 227.5L143.5 223Z" stroke="#178FAC" stroke-width="3" stroke-linejoin="round"/>
<path d="M570 268.9L573.9 275.654L580.654 271.755L576.754 265L570 268.9Z" stroke="#178FAC" stroke-width="3" stroke-linejoin="round"/>
<path d="M202 107C202 105.343 203.343 104 205 104H394C395.657 104 397 105.343 397 107H202Z" fill="#F0F0F0"/>
</svg>
