<svg width="600" height="313" viewBox="0 0 600 313" fill="none" xmlns="http://www.w3.org/2000/svg">
<path d="M0 6C0 2.6863 2.68629 0 6 0H594C597.314 0 600 2.68629 600 6V312H0V6Z" fill="white"/>
<path opacity="0.2" d="M0 6C0 2.6863 2.68629 0 6 0H594C597.314 0 600 2.68629 600 6V312H0V6Z" fill="#FFA81D"/>
<mask id="mask0" mask-type="alpha" maskUnits="userSpaceOnUse" x="0" y="0" width="600" height="312">
<path d="M0 6C0 2.6863 2.68629 0 6 0H594C597.314 0 600 2.68629 600 6V312H0V6Z" fill="#FFA81D"/>
</mask>
<g mask="url(#mask0)">
<path opacity="0.1" d="M561.011 174.714C559.971 173.788 559.37 172.541 559.33 171.152C559.33 168.374 561.851 166.13 564.971 166.13L634.583 166.13C637.704 166.13 640.224 168.374 640.224 171.152C640.224 173.93 637.704 176.174 634.583 176.174L564.971 176.174C563.411 176.21 562.051 175.64 561.011 174.714Z" fill="#FFA81D"/>
<path opacity="0.1" d="M-56.03 155.891C-57.5783 154.513 -58.4716 152.658 -58.5311 150.59C-58.5311 146.455 -54.7794 143.115 -50.1344 143.115H53.485C58.13 143.115 61.8817 146.455 61.8817 150.59C61.8817 154.725 58.13 158.065 53.485 158.065H-50.1344C-52.4569 158.118 -54.4816 157.27 -56.03 155.891Z" fill="#FFA81D"/>
</g>
<path d="M307.834 218.688L307.709 218.789H307.834V218.688Z" fill="#EBEBEB"/>
<path d="M307.582 218.688L307.078 218.588L307.456 218.789L307.582 218.688Z" fill="#EBEBEB"/>
<path d="M307.708 218.789H307.583V218.889H307.708V218.789H307.583H307.708Z" fill="#EBEBEB"/>
<path d="M307.582 218.889V218.789L307.078 218.989L307.582 218.889Z" fill="#EBEBEB"/>
<path d="M307.709 219.189L307.835 219.99L307.96 219.189L307.835 218.889L307.709 219.189Z" fill="#EBEBEB"/>
<path d="M492.866 15.0001L485 19.373L489.373 27.2392L497.239 22.8663L492.866 15.0001Z" stroke="#178FAC" stroke-width="3" stroke-linejoin="round"/>
<rect x="213" y="153" width="17" height="5" rx="2.5" fill="#FAFAFA"/>
<rect x="340" y="144" width="17" height="5" rx="2.5" fill="#FAFAFA"/>
<circle cx="502" cy="264" r="5" fill="white"/>
<circle cx="69" cy="71" r="4" fill="white"/>
<circle opacity="0.1" cx="541" cy="172" r="6" fill="#FFA81D"/>
<path opacity="0.1" d="M169.079 53.381C168.28 52.5825 167.808 51.5188 167.756 50.3424C167.712 47.9907 169.576 46.127 171.927 46.1711L224.387 47.1547C226.739 47.1988 228.674 49.1339 228.718 51.4855C228.762 53.8371 226.898 55.7009 224.546 55.6568L172.087 54.6731C170.912 54.6812 169.878 54.1796 169.079 53.381Z" fill="#FFA81D"/>
<path d="M161.3 158.66C163.563 151.023 159.207 142.997 151.57 140.734C143.933 138.471 135.907 142.827 133.644 150.464C131.381 158.101 135.737 166.127 143.374 168.39C151.011 170.653 159.037 166.297 161.3 158.66Z" fill="#FFA81D"/>
<path d="M160.039 158.435C162.355 150.814 158.055 142.759 150.435 140.443C142.814 138.126 134.759 142.426 132.443 150.047C130.126 157.667 134.426 165.722 142.047 168.039C149.667 170.355 157.722 166.055 160.039 158.435Z" fill="#FFD43B"/>
<path d="M142.806 167.101C139.414 166.192 136.575 164.015 134.822 160.979C133.069 157.943 132.603 154.396 133.512 151.004C134.421 147.611 136.598 144.773 139.634 143.02C142.67 141.267 146.217 140.801 149.61 141.709C153.002 142.618 155.84 144.796 157.593 147.832C159.346 150.868 159.813 154.415 158.904 157.807C157.995 161.2 155.817 164.038 152.781 165.791C149.732 167.54 146.198 168.01 142.806 167.101ZM149.406 142.47C142.821 140.706 136.037 144.622 134.272 151.207C132.508 157.792 136.425 164.576 143.01 166.341C149.595 168.105 156.378 164.188 158.143 157.603C159.907 151.019 155.978 144.231 149.406 142.47Z" fill="#FFA412"/>
<path d="M146.794 157.592C146.879 157.388 146.921 157.194 146.926 157.021C146.932 156.847 146.889 156.661 146.813 156.487C146.736 156.312 146.612 156.125 146.446 155.936C146.281 155.748 146.07 155.538 145.819 155.326C145.377 154.941 144.984 154.568 144.65 154.201C144.308 153.832 144.046 153.464 143.848 153.092C143.652 152.711 143.541 152.322 143.516 151.914C143.492 151.507 143.569 151.065 143.76 150.582C143.921 150.173 144.149 149.823 144.43 149.539C144.712 149.255 145.036 149.043 145.414 148.898C145.782 148.75 146.193 148.675 146.636 148.671C147.079 148.666 147.545 148.729 148.029 148.879L148.652 147.32L149.906 147.82L149.277 149.399C149.706 149.637 150.063 149.918 150.356 150.243C150.649 150.568 150.872 150.926 151.015 151.313C151.157 151.701 151.22 152.119 151.203 152.566C151.186 153.014 151.082 153.479 150.89 153.962L148.626 153.057C148.855 152.471 148.901 151.99 148.761 151.593C148.618 151.206 148.324 150.921 147.899 150.746C147.667 150.653 147.444 150.603 147.249 150.602C147.054 150.601 146.88 150.637 146.717 150.707C146.564 150.779 146.426 150.875 146.317 151.01C146.2 151.143 146.105 151.303 146.037 151.48C145.969 151.657 145.923 151.83 145.918 152.003C145.915 152.167 145.951 152.341 146.027 152.515C146.104 152.69 146.228 152.877 146.394 153.065C146.559 153.254 146.777 153.476 147.049 153.724C147.479 154.117 147.86 154.496 148.205 154.856C148.539 155.223 148.809 155.593 148.996 155.972C149.191 156.353 149.303 156.743 149.327 157.15C149.352 157.557 149.274 157.999 149.086 158.473C148.92 158.901 148.692 159.251 148.401 159.533C148.119 159.817 147.786 160.026 147.42 160.164C147.054 160.302 146.646 160.368 146.194 160.37C145.753 160.365 145.28 160.289 144.794 160.149L144.211 161.595L142.967 161.098L143.538 159.658C143.122 159.444 142.742 159.177 142.393 158.868C142.044 158.559 141.768 158.208 141.568 157.805C141.368 157.402 141.25 156.959 141.227 156.47C141.204 155.981 141.307 155.443 141.545 154.86L143.81 155.764C143.677 156.109 143.604 156.418 143.614 156.688C143.615 156.955 143.673 157.197 143.783 157.401C143.893 157.605 144.032 157.776 144.222 157.909C144.41 158.052 144.608 158.157 144.821 158.245C145.062 158.34 145.295 158.392 145.507 158.408C145.718 158.423 145.911 158.393 146.081 158.336C146.25 158.278 146.399 158.184 146.517 158.052C146.622 157.926 146.714 157.776 146.794 157.592Z" fill="#17547F"/>
<path d="M241.673 28.9486L244.949 23.2754L239.275 19.9999L236 25.6732L241.673 28.9486Z" stroke="#EB6767" stroke-width="3" stroke-linejoin="round"/>
<path d="M59.5 46.0002L55 53.7944L62.7942 58.2944L67.2942 50.5002L59.5 46.0002Z" stroke="#178FAC" stroke-width="3" stroke-linejoin="round"/>
<path d="M570 268.9L573.9 275.654L580.654 271.755L576.754 265L570 268.9Z" stroke="#178FAC" stroke-width="3" stroke-linejoin="round"/>
<path d="M208.089 63.4371C201.731 51.7232 187.08 47.3818 175.366 53.7402C163.653 60.0987 159.311 74.7491 165.67 86.463C172.028 98.1769 186.679 102.518 198.392 96.1599C210.106 89.8015 214.448 75.1509 208.089 63.4371Z" fill="#FFA81D"/>
<path d="M206.33 64.6628C200.054 52.9058 185.436 48.4624 173.679 54.7382C161.922 61.014 157.478 75.6324 163.754 87.3894C170.03 99.1463 184.648 103.59 196.405 97.314C208.162 91.0382 212.606 76.4198 206.33 64.6628Z" fill="#FFD43B"/>
<path d="M196.194 95.3071C191.105 98.2453 185.17 99.0274 179.504 97.5091C173.837 95.9909 169.089 92.3462 166.151 87.2571C163.212 82.168 162.43 76.2333 163.949 70.567C165.467 64.9007 169.112 60.1521 174.201 57.2139C179.29 54.2757 185.224 53.4936 190.891 55.0119C196.557 56.5302 201.306 60.1749 204.244 65.2639C207.182 70.353 207.964 76.2878 206.446 81.9541C204.909 87.6312 201.283 92.3689 196.194 95.3071ZM174.86 58.3552C164.981 64.0587 161.588 76.7194 167.292 86.5982C172.995 96.4769 185.656 99.8694 195.535 94.1658C205.414 88.4623 208.806 75.8017 203.103 65.9229C197.399 56.0441 184.72 52.6625 174.86 58.3552Z" fill="#FFA412"/>
<path d="M191.003 80.2677C190.822 79.8237 190.587 79.4603 190.328 79.1854C190.07 78.9106 189.718 78.6897 189.331 78.5387C188.945 78.3877 188.465 78.2906 187.921 78.2556C187.376 78.2205 186.728 78.2207 186.015 78.2828C184.743 78.3689 183.564 78.4009 182.486 78.3494C181.39 78.3088 180.422 78.1443 179.545 77.8775C178.657 77.5921 177.886 77.164 177.221 76.5748C176.556 75.9855 175.996 75.1868 175.546 74.1491C175.164 73.2718 174.975 72.383 174.972 71.5121C174.968 70.6412 175.141 69.8178 175.499 69.0123C175.839 68.2176 176.355 67.4703 177.03 66.7813C177.705 66.0923 178.519 65.4724 179.495 64.9589L178.055 61.5996L180.753 60.4406L182.216 63.8373C183.243 63.5434 184.223 63.4265 185.175 63.4758C186.126 63.5252 187.02 63.7329 187.836 64.1098C188.652 64.4867 189.392 65.0327 190.054 65.7479C190.717 66.4631 191.272 67.3396 191.722 68.3773L186.843 70.4705C186.294 69.2161 185.626 68.4045 184.799 68.0089C183.982 67.632 183.093 67.6467 182.167 68.0313C181.667 68.2452 181.248 68.5124 180.946 68.8112C180.645 69.11 180.432 69.4325 180.289 69.7895C180.164 70.1358 180.099 70.4978 180.141 70.8728C180.164 71.2585 180.265 71.6493 180.432 72.0264C180.6 72.4035 180.795 72.7403 181.053 73.0152C181.301 73.2713 181.623 73.4842 182.01 73.6353C182.396 73.7863 182.877 73.8833 183.421 73.9184C183.965 73.9535 184.643 73.9612 185.444 73.9228C186.708 73.8662 187.88 73.8637 188.965 73.8857C190.042 73.9371 191.029 74.0909 191.899 74.3871C192.787 74.6726 193.558 75.1006 194.222 75.6898C194.887 76.2791 195.448 77.0778 195.887 78.0968C196.29 79.0115 196.479 79.9003 196.464 80.782C196.468 81.6529 196.276 82.4871 195.926 83.2631C195.575 84.0391 195.048 84.7677 194.354 85.4675C193.669 86.1378 192.825 86.7498 191.86 87.282L193.189 90.406L190.509 91.5541L189.172 88.4597C188.203 88.7695 187.207 88.9454 186.194 89.0062C185.182 89.067 184.217 88.9507 183.288 88.6386C182.359 88.3265 181.497 87.8266 180.709 87.1093C179.92 86.3919 179.251 85.4061 178.72 84.141L183.599 82.0478C183.924 82.7833 184.288 83.3712 184.719 83.7713C185.131 84.1821 185.593 84.4641 186.076 84.6093C186.559 84.7546 187.036 84.8033 187.534 84.7154C188.043 84.6461 188.508 84.502 188.971 84.3097C189.49 84.085 189.928 83.807 190.278 83.5053C190.628 83.2036 190.878 82.8595 191.051 82.5104C191.223 82.1613 191.307 81.7884 191.284 81.4026C191.253 81.0464 191.163 80.6743 191.003 80.2677Z" fill="#17547F"/>
<path d="M0 312C0 312 254.335 302.561 371.377 272.188C488.42 241.815 600 253.019 600 253.019V312H0Z" fill="#FFF6D6"/>
<path d="M34.7384 217L27 222.869L32.8692 230.608L40.6076 224.738L34.7384 217Z" stroke="#EB6767" stroke-width="3" stroke-linejoin="round"/>
<path d="M0 263.917L144.5 222.617C287 191.117 380.004 231.537 456 237.117C560.9 244.819 600 209 600 209V312.117H0V263.917Z" fill="#FFCC79"/>
<path opacity="0.3" d="M440.033 296.223C438.728 294.99 437.924 293.327 437.778 291.471C437.581 287.757 440.425 284.744 444.143 284.727L572.148 284.727C575.866 284.711 579.275 287.757 579.473 291.47C579.67 295.184 575.866 297.761 572.148 297.778L444.857 298.153C443 298.209 441.339 297.455 440.033 296.223Z" fill="#FFA81D"/>
<path d="M457.949 206.275L452.275 203L449 208.673L454.673 211.949L457.949 206.275Z" stroke="#EB6767" stroke-width="3" stroke-linejoin="round"/>
<path d="M323.735 219.087L314.054 245.336H325.439L346.575 230.882L323.735 219.087Z" fill="#FFC727"/>
<path opacity="0.1" d="M323.735 219.087L314.054 245.336H325.439L346.575 230.882L323.735 219.087Z" fill="black"/>
<path d="M465.84 221L475.521 247.248H464.135L443 232.795L465.84 221Z" fill="#FFA81D"/>
<path opacity="0.1" d="M465.84 221L475.521 247.248H464.135L443 232.795L465.84 221Z" fill="black"/>
<path d="M479.454 213.455C525.01 167.899 525.01 94.04 479.454 48.4849C433.899 2.92982 360.04 2.92981 314.485 48.4849C268.93 94.04 268.93 167.899 314.485 213.455C360.04 259.01 433.899 259.01 479.454 213.455Z" fill="#FFA81D"/>
<path opacity="0.1" d="M395.526 240.291C456.977 240.291 506.792 190.475 506.792 129.025C506.792 67.5739 456.977 17.7583 395.526 17.7583C334.076 17.7583 284.26 67.5739 284.26 129.025C284.26 190.475 334.076 240.291 395.526 240.291Z" fill="black"/>
<path d="M470.646 204.149C511.355 163.44 511.355 97.437 470.646 56.7276C429.937 16.0183 363.934 16.0182 323.224 56.7276C282.515 97.437 282.515 163.44 323.224 204.149C363.934 244.859 429.937 244.859 470.646 204.149Z" fill="white"/>
<path d="M498.816 108.299C451.364 137.07 373.3 184.249 329.735 210.088C317.463 199.793 307.645 186.703 301.236 171.84L445.432 38.1436C472.294 52.3245 492.202 77.823 498.816 108.299Z" fill="#EBEBEB" fill-opacity="0.6"/>
<path d="M501.065 134.07C500.656 146.001 498.27 157.387 494.179 167.954L364.164 229.451C358.437 227.542 352.983 225.224 347.733 222.36C387.004 199.725 458.795 158.409 501.065 134.07Z" fill="#EBEBEB" fill-opacity="0.6"/>
<path d="M397.981 33.7803H395.935V49.5975H397.981V33.7803Z" fill="#C7C7C7"/>
<path d="M349.516 46.2308L347.745 47.2534L355.654 60.9512L357.425 59.9285L349.516 46.2308Z" fill="#C7C7C7"/>
<path d="M313.703 81.2243L312.68 82.9956L326.378 90.9058L327.401 89.1346L313.703 81.2243Z" fill="#C7C7C7"/>
<path d="M316.031 129.434H300.214V131.479H316.031V129.434Z" fill="#C7C7C7"/>
<path d="M326.404 170.055L312.706 177.964L313.729 179.735L327.427 171.826L326.404 170.055Z" fill="#C7C7C7"/>
<path d="M355.616 199.965L347.715 213.667L349.487 214.689L357.388 200.986L355.616 199.965Z" fill="#C7C7C7"/>
<path d="M397.981 211.383H395.935V227.201H397.981V211.383Z" fill="#C7C7C7"/>
<path d="M438.267 199.979L436.496 201.002L444.404 214.7L446.175 213.677L438.267 199.979Z" fill="#C7C7C7"/>
<path d="M467.472 169.962L466.449 171.733L480.147 179.642L481.169 177.871L467.472 169.962Z" fill="#C7C7C7"/>
<path d="M493.634 129.434H477.817V131.479H493.634V129.434Z" fill="#C7C7C7"/>
<path d="M480.135 81.2343L466.437 89.1445L467.46 90.9158L481.158 83.0056L480.135 81.2343Z" fill="#C7C7C7"/>
<path d="M444.427 46.2228L436.526 59.9253L438.298 60.9469L446.199 47.2445L444.427 46.2228Z" fill="#C7C7C7"/>
<path d="M495.33 105.851L398.64 135.543L396.131 125.98L494.686 103.271L495.33 105.851Z" fill="#FFA81D"/>
<path d="M397.64 59.3467L402.003 136.319L392.118 136.183L394.913 59.3467H397.64Z" fill="#263238"/>
<path d="M396.958 133.865C398.841 133.865 400.367 132.338 400.367 130.456C400.367 128.573 398.841 127.047 396.958 127.047C395.076 127.047 393.549 128.573 393.549 130.456C393.549 132.338 395.076 133.865 396.958 133.865Z" fill="#FFC727"/>
<ellipse opacity="0.3" cx="299.236" cy="282.115" rx="68.8077" ry="8.49978" fill="#B87100"/>
<path d="M382.68 270.911H218.161C214.222 270.911 211 267.679 211 263.729V160.182C211 156.232 214.222 153 218.161 153H382.739C386.678 153 389.9 156.232 389.9 160.182V263.729C389.84 267.679 386.678 270.911 382.68 270.911Z" fill="#17547F"/>
<path d="M315.959 268.09L285.49 268.314L284.316 280.502H314.394C316.015 280.502 317.245 278.992 316.91 277.427L315.959 268.09Z" fill="#17547F"/>
<path d="M382.739 266.033H218.161C214.222 266.033 211 263.001 211 259.296V162.177C211 158.471 214.222 155.44 218.161 155.44H382.739C386.678 155.44 389.9 158.471 389.9 162.177V259.296C389.9 263.001 386.678 266.033 382.739 266.033Z" fill="#FFA81D"/>
<path d="M342.357 283.923H260.17C258.687 283.923 257.352 282.724 257.352 281.077C257.352 279.579 258.538 278.23 260.17 278.23H342.357C343.84 278.23 345.175 279.429 345.175 281.077C345.027 282.724 343.84 283.923 342.357 283.923Z" fill="#17547F"/>
<path d="M389.9 248.956H211V162.325C211 158.538 214.222 155.44 218.161 155.44H382.739C386.678 155.44 389.9 158.538 389.9 162.325V248.956Z" fill="white"/>
<path d="M373.742 163.323H225.471C222.71 163.323 220.471 165.562 220.471 168.323V239.275C220.471 242.037 222.71 244.275 225.471 244.275H373.742C376.503 244.275 378.742 242.037 378.742 239.275V168.323C378.742 165.562 376.503 163.323 373.742 163.323Z" fill="#F0F0F0"/>
<path d="M305.623 258.866C305.623 261.093 303.818 262.898 301.591 262.898C299.365 262.898 297.56 261.093 297.56 258.866C297.56 256.639 299.365 254.834 301.591 254.834C303.818 254.834 305.623 256.639 305.623 258.866Z" fill="white" stroke="#17547F" stroke-width="2"/>
<path d="M220.714 165.952C220.714 164.611 221.802 163.524 223.143 163.524H376.139C377.48 163.524 378.567 164.611 378.567 165.952H220.714Z" fill="#F0F0F0"/>
<path d="M302.402 179.07C293.359 179.723 286.739 187.542 287.393 196.585C288.046 205.628 295.865 212.248 304.908 211.594C313.952 210.941 320.571 203.122 319.918 194.079C319.264 185.036 311.446 178.416 302.402 179.07ZM302.456 201.463C301.83 201.995 300.865 201.588 300.81 200.769L300.092 190.158C300.037 189.34 300.934 188.807 301.626 189.246L309.178 194.039C309.746 194.4 309.803 195.208 309.29 195.645L302.456 201.463Z" fill="#17547F"/>
<path opacity="0.5" d="M362 227.146H241C239.895 227.146 239 228.041 239 229.146C239 230.251 239.895 231.146 241 231.146H362C363.105 231.146 364 230.251 364 229.146C364 228.041 363.105 227.146 362 227.146Z" fill="#17547F"/>
<path d="M339 227.146H241C239.895 227.146 239 228.041 239 229.146C239 230.251 239.895 231.146 241 231.146H339C340.105 231.146 341 230.251 341 229.146C341 228.041 340.105 227.146 339 227.146Z" fill="#17547F"/>
<path d="M547.375 40.0965L566.852 28.063L560.585 38.3854L570.208 44.4642L544.866 56.9263L559.273 43.2844L547.375 40.0965Z" fill="#FFA81D"/>
<path d="M225.632 116.442L231.195 92.893L234.226 105.291L245.961 102.642L236.335 130.896L236.907 109.933L225.632 116.442Z" fill="#FFA81D"/>
<path d="M520.848 185.333L520.161 162.323L526 172.969L536.131 167.646L534.242 195.979L529.606 176.575L520.848 185.333Z" fill="#FFA81D"/>
<path d="M491.496 242.415L483.649 229.715L490.38 233.802L494.344 227.527L502.47 244.052L493.575 234.657L491.496 242.415Z" fill="#FFA81D"/>
<path opacity="0.5" d="M83.1795 288.312H32V282.048H83.1795V288.312Z" fill="#FFA81D"/>
<g opacity="0.3">
<path opacity="0.5" d="M83.1413 288.312H67.1764V282.048H83.1413V288.312Z" fill="black"/>
</g>
<path opacity="0.5" d="M142.762 269.368H91.582V263.104H142.762V269.368Z" fill="#FFA81D"/>
<path opacity="0.5" d="M202 251.264H150.821V245H202V251.264Z" fill="#FFA81D"/>
<g opacity="0.3">
<path opacity="0.5" d="M201.962 251.264H185.997V245H201.962V251.264Z" fill="black"/>
</g>
<path fill-rule="evenodd" clip-rule="evenodd" d="M172.241 207.265C169.802 203.49 172.519 198.31 177.142 197.921L188.48 196.967C192.5 196.629 195.532 200.203 194.539 204.111L191.166 217.396C189.855 222.558 183.007 223.933 180.206 219.597L178.861 217.514C178.383 218.463 177.647 219.302 176.682 219.917L116.195 258.493C113.008 260.526 108.782 259.241 107.377 255.813L103.45 246.236C102.04 242.796 97.7965 241.522 94.6173 243.589C92.3924 245.036 89.7685 246.743 86.9652 248.567C77.0201 255.037 64.8174 262.977 60.1654 265.963C56.1349 268.55 52.7009 270.753 49.7702 272.63C48.2093 273.629 46.2826 273.873 44.5408 273.294L42.7332 272.693C37.9417 271.1 37.2184 264.66 41.5156 261.915C52.7313 254.751 69.4525 243.998 81.968 235.929L104.126 221.294C107.419 219.119 111.855 220.552 113.134 224.204L116.736 234.483C117.998 238.082 122.337 239.538 125.629 237.467L170.054 209.522C171.003 208.925 172.05 208.618 173.089 208.578L172.241 207.265Z" fill="url(#paint0_linear)"/>
<path fill-rule="evenodd" clip-rule="evenodd" d="M168.925 202.758C166.424 199.023 169.053 193.799 173.669 193.333L184.99 192.189C189.003 191.784 192.094 195.308 191.168 199.231L188.016 212.571C186.792 217.754 179.967 219.243 177.095 214.954L176.826 214.553C176.546 214.809 176.239 215.042 175.904 215.249L114.596 253.205C111.44 255.159 107.308 253.903 105.88 250.556L101.615 240.558C100.182 237.2 96.0361 235.952 92.8865 237.941C90.5934 239.388 87.8658 241.112 84.9459 242.957C74.8791 249.317 62.5267 257.122 57.8173 260.057C53.7131 262.614 50.22 264.79 47.2417 266.641C45.6921 267.605 43.7967 267.832 42.0822 267.262L40.0955 266.602C35.2673 264.997 34.5831 258.483 38.9499 255.775C50.3025 248.735 67.1336 238.226 79.7455 230.331L102.375 215.813C105.639 213.719 109.98 215.121 111.287 218.692L115.207 229.4C116.496 232.919 120.74 234.343 124.003 232.351L169.349 204.668C169.555 204.542 169.765 204.43 169.979 204.331L168.925 202.758Z" fill="url(#paint1_linear)"/>
<path d="M195 290.5L199.5 298.294L207.294 293.794L202.794 286L195 290.5Z" stroke="#178FAC" stroke-width="3" stroke-linejoin="round"/>
<path d="M571.698 241.17C571.698 241.17 564.299 237.495 555.924 223.66C547.607 209.84 545.993 193.779 544.638 193.546C543.282 193.313 538.075 189.053 520.673 212.13C503.27 235.207 506.251 242.257 508.527 242.737C510.745 243.201 527 242.347 536.204 245.725C545.408 249.103 556.315 257.17 556.315 257.17L571.698 241.17Z" fill="#17547F"/>
<path opacity="0.4" d="M571.698 241.17C571.698 241.17 564.299 237.495 555.924 223.66C547.607 209.84 545.993 193.779 544.638 193.546C543.282 193.313 538.075 189.053 520.673 212.13C503.27 235.207 506.251 242.257 508.527 242.737C510.745 243.201 527 242.347 536.204 245.725C545.408 249.103 556.315 257.17 556.315 257.17L571.698 241.17Z" fill="#17547F"/>
<path d="M584.7 260.281L580.778 265.026L578.976 267.148C576.528 270.073 572.399 270.53 569.569 268.208L554.232 258.043L569.668 236.783L584.2 250.184C587.022 252.764 587.222 257.31 584.7 260.281Z" fill="#308EAC"/>
<path d="M572.948 266.639L564.949 276.478L562.442 275.024L541.341 285.91L538.875 274.636C538.875 274.636 550.333 272.366 553.157 268.955C555.998 265.484 554.025 264.108 554.025 264.108L560.278 259.403L572.948 266.639Z" fill="#17547F"/>
<path d="M521.17 213.955C511.831 226.495 506.382 238.319 508.957 240.441C511.548 242.503 521.16 234.009 530.499 221.469C539.838 208.929 545.287 197.105 542.712 194.983C540.064 192.905 530.452 201.4 521.17 213.955Z" fill="#263238"/>
<path d="M584.316 268.383L580.073 265.814L584.249 260.811L587.13 263.862L584.316 268.383Z" fill="#308EAC"/>
<path d="M558.172 261.052L568.453 272.142L570.738 269.368L558.172 261.052Z" fill="#263238"/>
<path d="M584.249 260.811L580.073 265.814L580.97 266.379L584.644 261.178L584.249 260.811Z" fill="#263238"/>
<path d="M555.394 256.466C555.394 256.466 552.483 254.448 552.582 254.54C552.68 254.632 567.586 238.113 567.586 238.113L568.293 238.694L555.902 255.951" fill="#263238"/>
<path d="M580.827 261.392C580.72 261.559 578.664 260.031 576.229 258.076C573.794 256.122 571.902 254.442 572.008 254.276C572.114 254.109 574.171 255.636 576.606 257.591C579.041 259.546 580.933 261.225 580.827 261.392Z" fill="#263238"/>
<path d="M583.004 258.329C582.898 258.495 581.055 257.09 578.908 255.212C576.76 253.335 575.098 251.717 575.188 251.611C575.294 251.444 577.137 252.849 579.284 254.727C581.489 256.62 583.151 258.238 583.004 258.329Z" fill="#263238"/>
<path d="M578.198 264.529C578.182 264.59 577.64 264.315 576.842 263.84C576.414 263.596 576.003 263.29 575.477 262.954C574.951 262.617 574.457 262.159 573.906 261.686C571.684 259.854 570.08 258.252 570.186 258.085C570.292 257.918 572.119 259.384 574.299 261.14C574.85 261.614 575.344 262.071 575.812 262.392C576.265 262.774 576.734 263.095 577.087 263.385C577.836 264.042 578.231 264.408 578.198 264.529Z" fill="#263238"/>
<path d="M534.061 213.697C534.061 213.697 528.299 207.595 522.284 216.467C516.213 225.324 523.044 228.587 523.044 228.587C527.09 224.527 530.757 219.584 534.061 213.697Z" fill="#308EAC"/>
<path d="M544.088 203.881C544.145 203.897 543.851 204.534 543.369 205.642C542.871 206.811 542.128 208.435 541.213 210.469C540.706 211.441 540.109 212.518 539.439 213.64C539.103 214.202 538.825 214.779 538.474 215.401C538.335 215.689 538.122 216.023 537.983 216.311C537.787 216.584 537.574 216.918 537.378 217.191C536.56 218.404 535.725 219.678 534.817 220.998C534.604 221.331 534.391 221.665 534.179 221.999C533.966 222.332 533.696 222.651 533.425 222.969C532.943 223.621 532.402 224.258 531.903 224.97C531.363 225.607 530.863 226.32 530.323 226.956C530.053 227.275 529.84 227.608 529.57 227.927C529.3 228.245 529.046 228.503 528.775 228.821C527.727 229.973 526.679 231.124 525.663 232.154C525.409 232.412 525.155 232.67 524.901 232.927C524.647 233.185 524.41 233.381 524.156 233.639C523.664 234.093 523.173 234.548 522.681 235.002C521.714 235.85 520.878 236.668 520.059 237.425C518.338 238.787 516.945 239.847 516.01 240.573C515.019 241.284 514.486 241.662 514.486 241.662C514.428 241.647 514.977 241.208 515.87 240.405C516.821 239.618 518.173 238.483 519.837 237.105C520.656 236.348 521.492 235.53 522.401 234.667C522.893 234.212 523.327 233.742 523.818 233.288C524.072 233.031 524.31 232.834 524.564 232.576C524.818 232.319 525.072 232.061 525.268 231.788C526.226 230.743 527.275 229.591 528.323 228.439C528.593 228.121 528.847 227.863 529.117 227.545C529.387 227.227 529.6 226.893 529.87 226.575C530.353 225.923 530.894 225.286 531.377 224.634C531.917 223.997 532.4 223.345 532.883 222.693C533.153 222.375 533.423 222.057 533.636 221.723C533.849 221.389 534.061 221.056 534.332 220.737C535.24 219.418 536.075 218.144 536.893 216.931C537.089 216.658 537.302 216.324 537.498 216.051C537.695 215.778 537.85 215.429 538.046 215.156C538.398 214.534 538.733 213.972 539.069 213.411C539.739 212.288 540.32 211.272 540.884 210.316C541.84 208.358 542.641 206.75 543.197 205.596C543.695 204.427 544.047 203.805 544.088 203.881Z" fill="#263238"/>
<defs>
<linearGradient id="paint0_linear" x1="170.871" y1="223.834" x2="41.1141" y2="255.693" gradientUnits="userSpaceOnUse">
<stop stop-color="#17547F"/>
<stop offset="1" stop-color="#17547F" stop-opacity="0.7"/>
</linearGradient>
<linearGradient id="paint1_linear" x1="190.211" y1="195.121" x2="50.9188" y2="242.248" gradientUnits="userSpaceOnUse">
<stop stop-color="#FFA81D"/>
<stop offset="1" stop-color="#FFB743"/>
</linearGradient>
</defs>
</svg>
