<svg width="92" height="92" viewBox="0 0 92 92" fill="none" xmlns="http://www.w3.org/2000/svg">
<g clip-path="url(#clip0_874:12417)">
<path d="M0.198863 45.4123L1.46147 43.514C2.82041 44.436 4.07161 44.8983 5.21505 44.9009C6.08065 44.9456 6.94219 44.7529 7.70983 44.343C8.31831 43.9556 8.62255 43.514 8.62255 42.9639C8.62255 41.8791 7.85434 41.3368 6.31792 41.3368C5.83946 41.3669 5.36396 41.4342 4.89559 41.5382C4.36605 41.6524 3.82783 41.7198 3.28692 41.7397C1.42344 41.7397 0.491696 41.023 0.491696 39.5896C0.50235 39.352 0.566549 39.1201 0.679321 38.9118C0.792093 38.7036 0.95041 38.5245 1.14201 38.3886C1.62048 38.0113 2.17507 37.7467 2.7659 37.6138C0.922705 36.7305 0.00110594 35.1977 0.00110594 33.0153C-0.0129662 32.3643 0.10739 31.7175 0.354377 31.1169C0.601363 30.5162 0.969469 29.9752 1.43484 29.5287C1.90585 29.0689 2.46152 28.7086 3.06984 28.4686C3.67816 28.2285 4.3271 28.1135 4.97926 28.1302C6.27229 28.1302 7.28643 28.4013 8.02168 28.9437L9.1892 27.5181L10.7104 28.9786L9.3109 30.0556C9.9419 30.9571 10.2567 32.0488 10.2046 33.1548C10.2409 34.4096 9.79624 35.6296 8.96483 36.5562C8.11278 37.4792 6.94709 38.0362 5.70564 38.1136L3.77751 38.315C3.46101 38.3648 3.15185 38.4546 2.85717 38.5823C2.47307 38.7373 2.28292 38.9387 2.28292 39.1906C2.28292 39.5315 2.66322 39.7019 3.48467 39.7019C4.03628 39.6791 4.58544 39.6144 5.12758 39.5082C5.67474 39.4015 6.22901 39.3367 6.7857 39.3145C8.07619 39.3145 9.09033 39.6283 9.82811 40.2559C10.1908 40.581 10.4767 40.9854 10.6644 41.4389C10.852 41.8924 10.9367 42.3833 10.912 42.8748C10.9154 43.4727 10.7679 44.0615 10.4835 44.5846C10.1991 45.1076 9.78746 45.5474 9.28808 45.8617C8.06331 46.6616 6.62697 47.0592 5.17321 47.0006C4.25305 46.9968 3.33922 46.8452 2.46546 46.5512C1.65239 46.3042 0.886083 45.9192 0.198863 45.4123ZM5.14279 30.0284C4.76907 30.0168 4.39742 30.0893 4.0543 30.2406C3.71119 30.3919 3.40503 30.6184 3.15761 30.904C2.65081 31.4889 2.3792 32.247 2.39701 33.027C2.37025 33.8694 2.64002 34.6938 3.15761 35.3514C3.39898 35.6522 3.70568 35.8917 4.0535 36.051C4.40132 36.2104 4.78074 36.2852 5.1618 36.2695C5.53147 36.2867 5.89988 36.2146 6.23696 36.0591C6.57404 35.9036 6.87023 35.669 7.10135 35.3746C7.5919 34.6984 7.83899 33.8708 7.8011 33.0308C7.81891 32.2509 7.5473 31.4928 7.0405 30.9079C6.80871 30.6252 6.51741 30.3994 6.18823 30.2472C5.85904 30.0949 5.50042 30.0202 5.13899 30.0284H5.14279Z" fill="#231815"/>
<path d="M20.7046 40.213C19.7741 41.4062 18.348 42.0015 16.4262 41.9989C15.9284 41.9986 15.4358 41.8955 14.9782 41.6957C14.5206 41.496 14.1076 41.2037 13.7641 40.8367C13.3918 40.4684 13.0983 40.0257 12.9019 39.5364C12.7056 39.0471 12.6107 38.5217 12.6232 37.9932C12.6267 37.3201 12.7868 36.6574 13.0902 36.0594C13.3936 35.4615 13.8317 34.9453 14.3687 34.553C15.5363 33.6155 17.0309 33.1467 18.8297 33.1467C19.3987 33.1615 19.9614 33.2715 20.4954 33.4722C20.4954 31.3079 19.5472 30.2244 17.6508 30.2218C16.1942 30.2218 15.0761 30.6092 14.2889 31.4228L13.3115 29.4548C13.8613 29.0301 14.4824 28.711 15.1446 28.5134C15.8661 28.2633 16.6224 28.1325 17.3845 28.126C19.2911 28.126 20.6754 28.5676 21.5374 29.4509C22.3995 30.3342 22.8267 31.7353 22.8191 33.6542V38.4503C22.8191 39.6125 23.1613 40.4106 23.8497 40.8019V41.9873C23.1173 42.0333 22.3852 41.8922 21.72 41.5767C21.2236 41.2702 20.8605 40.7826 20.7046 40.213ZM20.484 35.1767C19.9781 35.0452 19.4611 34.9622 18.94 34.9288C17.9029 34.8839 16.8831 35.2101 16.0573 35.8508C15.7184 36.101 15.4411 36.4278 15.2471 36.8056C15.0531 37.1834 14.9477 37.6018 14.9392 38.028C14.9392 39.4175 15.7454 40.1123 17.3579 40.1123C18.5369 40.1123 19.5789 39.5428 20.484 38.4038V35.1767Z" fill="#231815"/>
<path d="M41.6936 41.7513V33.2788C41.6936 31.1713 40.7987 30.1176 39.0087 30.1176C38.4374 30.125 37.8832 30.3177 37.4266 30.6677C36.9835 30.9617 36.6335 31.3802 36.4188 31.8725V41.7513H34.0876V32.2405C34.0979 31.9414 34.0369 31.6441 33.9097 31.3742C33.7825 31.1043 33.593 30.8699 33.3574 30.6909C32.7937 30.2871 32.1138 30.0866 31.4255 30.1214C30.8856 30.1452 30.3657 30.3357 29.9347 30.6677C29.4675 30.9705 29.0819 31.3873 28.8128 31.8803V41.7513H26.4854V28.3665H28.0066L28.7672 29.9161C29.1444 29.3605 29.6485 28.9065 30.2361 28.5934C30.8237 28.2803 31.4773 28.1173 32.1404 28.1186C34.0394 28.1186 35.3591 28.71 36.0994 29.8929C36.4366 29.3171 36.9495 28.8694 37.5597 28.6183C38.2448 28.2837 38.9944 28.109 39.7541 28.1069C41.1118 28.1069 42.1652 28.5176 42.9068 29.335C43.6484 30.1524 44.0249 31.3108 44.0249 32.7945V41.7513H41.6936Z" fill="#231815"/>
<path d="M54.7645 40.2133C53.834 41.4065 52.4066 42.0018 50.4823 41.9993C49.9845 41.999 49.4919 41.8958 49.0343 41.6961C48.5768 41.4963 48.1637 41.2041 47.8202 40.837C47.4481 40.4686 47.1547 40.0259 46.9584 39.5366C46.762 39.0473 46.667 38.5219 46.6793 37.9935C46.6833 37.3201 46.8439 36.6572 47.148 36.0592C47.4521 35.4612 47.891 34.9452 48.4287 34.5533C49.5924 33.6158 51.0781 33.1471 52.8858 33.1471C53.456 33.1618 54.02 33.2718 54.5553 33.4725C54.5553 31.3082 53.6071 30.2247 51.7107 30.2222C50.2554 30.2222 49.1348 30.6225 48.3488 31.4231L47.3676 29.4357C47.9174 29.011 48.5386 28.692 49.2007 28.4943C49.9222 28.2439 50.6785 28.1132 51.4407 28.1069C53.3447 28.1069 54.729 28.5486 55.5936 29.4319C56.4581 30.3151 56.8891 31.7188 56.8866 33.6429V38.4506C56.8866 39.6129 57.2289 40.4109 57.9172 40.8022V41.9876C57.1848 42.0341 56.4526 41.893 55.7875 41.577C55.2882 41.272 54.9222 40.7842 54.7645 40.2133ZM54.5439 35.1771C54.0379 35.0458 53.521 34.9628 52.9999 34.9291C51.9627 34.8836 50.9427 35.2098 50.1172 35.8512C49.7769 36.1005 49.4982 36.427 49.3028 36.8048C49.1075 37.1826 49.0009 37.6015 48.9915 38.0284C48.9915 39.4179 49.7977 40.1126 51.4102 40.1126C52.5854 40.1126 53.6312 39.5431 54.5363 38.4041L54.5439 35.1771Z" fill="#231815"/>
<path d="M68.6189 41.7512V33.9643C68.6189 32.5426 68.4059 31.5431 67.9876 30.9736C67.5693 30.4041 66.8467 30.1174 65.8693 30.1174C65.2823 30.1329 64.7089 30.3009 64.2036 30.6055C63.6681 30.8889 63.2086 31.3012 62.8649 31.8065V41.7512H60.5337V28.3663H62.131L62.8649 30.0903C63.6255 28.7757 64.8805 28.1184 66.6299 28.1184C69.5101 28.1184 70.9489 29.9005 70.9464 33.4646V41.7512H68.6189Z" fill="#231815"/>
<path d="M75.3886 41.7512V30.3654H73.5859V28.3664H77.7198V41.7512H75.3886ZM76.6664 23.3069C76.8567 23.3038 77.0456 23.3403 77.2215 23.4142C77.3974 23.4882 77.5567 23.598 77.6894 23.7369C77.825 23.8711 77.9324 24.032 78.005 24.2099C78.0776 24.3877 78.1138 24.5787 78.1115 24.7713C78.1146 24.9651 78.0788 25.1576 78.0062 25.3368C77.9336 25.516 77.8258 25.6782 77.6894 25.8134C77.5567 25.9524 77.3974 26.0622 77.2215 26.1361C77.0456 26.2101 76.8567 26.2466 76.6664 26.2434C76.4778 26.2462 76.2908 26.2094 76.1168 26.1354C75.9427 26.0614 75.7855 25.9518 75.6548 25.8134C75.5171 25.679 75.4083 25.517 75.335 25.3377C75.2617 25.1583 75.2255 24.9655 75.2288 24.7713C75.2251 24.5783 75.2603 24.3866 75.3322 24.208C75.4042 24.0294 75.5114 23.8677 75.6472 23.7331C75.7794 23.5947 75.938 23.4856 76.1134 23.4123C76.2887 23.3389 76.4769 23.3031 76.6664 23.3069Z" fill="#231815"/>
<path d="M88.8437 40.213C87.9107 41.4062 86.4846 42.0015 84.5653 41.9989C84.0643 42.0013 83.5681 41.8994 83.1071 41.6996C82.646 41.4997 82.2299 41.2061 81.8842 40.8367C81.5119 40.4684 81.2184 40.0257 81.022 39.5364C80.8257 39.0471 80.7308 38.5217 80.7433 37.9932C80.7468 37.3201 80.9069 36.6574 81.2103 36.0594C81.5137 35.4615 81.9519 34.9453 82.4889 34.553C83.6577 33.6155 85.1446 33.1467 86.9498 33.1467C87.5188 33.1615 88.0815 33.2715 88.6155 33.4722C88.6155 31.3079 87.6673 30.2244 85.7709 30.2218C84.3143 30.2218 83.1962 30.6092 82.409 31.4228L81.4278 29.4354C81.9868 29.0143 82.6173 28.7017 83.2875 28.5134C84.0077 28.263 84.7627 28.1322 85.5237 28.126C87.4277 28.126 88.812 28.5676 89.6766 29.4509C90.5411 30.3342 90.9721 31.7379 90.9696 33.662V38.4503C90.9696 39.6125 91.3119 40.4106 92.0002 40.8019V41.9873C91.2678 42.0338 90.5356 41.8926 89.8705 41.5767C89.3698 41.2724 89.0024 40.7845 88.8437 40.213ZM88.6231 35.1767C88.1209 35.0459 87.6078 34.9629 87.0905 34.9288C86.0534 34.8839 85.0336 35.2101 84.2078 35.8508C83.8669 36.0998 83.5873 36.4261 83.3913 36.8039C83.1953 37.1817 83.0882 37.6008 83.0783 38.028C83.0783 39.4175 83.8846 40.1123 85.4971 40.1123C86.676 40.1123 87.718 39.5428 88.6231 38.4038V35.1767Z" fill="#231815"/>
<path d="M15.3386 67.1497L16.605 65.2514C17.9589 66.176 19.2088 66.6383 20.3548 66.6383C21.2211 66.6826 22.0835 66.4914 22.8534 66.0843C23.1148 65.9604 23.338 65.766 23.4988 65.5223C23.6597 65.2785 23.7521 64.9946 23.7661 64.7013C23.7661 63.6217 22.9979 63.0806 21.4615 63.078C20.983 63.106 20.5075 63.172 20.0391 63.2756C19.5099 63.3917 18.9715 63.4591 18.4305 63.4771C16.567 63.4771 15.6352 62.7604 15.6352 61.327C15.6452 61.0893 15.7095 60.8573 15.8231 60.6495C15.9366 60.4416 16.0963 60.2637 16.2894 60.1299C16.7684 59.7511 17.3245 59.4863 17.9171 59.3551C16.0688 58.4718 15.1447 56.939 15.1447 54.7566C15.1306 54.1055 15.2509 53.4587 15.4979 52.8581C15.7449 52.2575 16.113 51.7164 16.5784 51.2699C17.0491 50.8094 17.6046 50.4484 18.213 50.2077C18.8213 49.967 19.4704 49.8514 20.1228 49.8675C21.4158 49.8675 22.43 50.1387 23.1652 50.6811L24.3175 49.2632L25.8387 50.7276L24.443 51.7813C25.0716 52.6841 25.3862 53.7749 25.3367 54.8806C25.3712 56.1339 24.9267 57.352 24.097 58.2781C23.2506 59.2053 22.0892 59.7691 20.8492 59.8548L18.9211 60.0524C18.6045 60.1039 18.2954 60.195 18.0007 60.3236C17.6204 60.4747 17.4227 60.6761 17.4227 60.9279C17.4227 61.2689 17.8258 61.4393 18.6282 61.4393C19.18 61.4182 19.7292 61.3535 20.2711 61.2456C20.817 61.1391 21.37 61.0744 21.9254 61.0519C23.2185 61.0519 24.2263 61.3696 24.9488 61.9972C25.3133 62.321 25.6007 62.7251 25.7891 63.1788C25.9776 63.6326 26.0622 64.1241 26.0365 64.616C26.0393 65.2133 25.8914 65.8013 25.6071 66.3236C25.3227 66.846 24.9114 67.2852 24.4126 67.599C23.1865 68.399 21.7489 68.7966 20.2939 68.738C19.381 68.7267 18.4752 68.5712 17.609 68.277C16.7965 68.0311 16.0294 67.6502 15.3386 67.1497ZM20.2825 51.7697C19.9093 51.7578 19.5382 51.8302 19.1956 51.9815C18.8531 52.1329 18.5477 52.3595 18.3012 52.6452C17.7924 53.2289 17.5205 53.9879 17.5406 54.7682C17.5128 55.6108 17.7827 56.4355 18.3012 57.0926C18.5425 57.3934 18.8492 57.6329 19.197 57.7923C19.5449 57.9516 19.9243 58.0264 20.3054 58.0108C20.6747 58.0287 21.043 57.9574 21.3802 57.8025C21.7173 57.6476 22.0136 57.4137 22.2449 57.1198C22.7349 56.4432 22.9819 55.6158 22.9446 54.776C22.9625 53.996 22.6908 53.2379 22.184 52.653C21.9532 52.369 21.6621 52.142 21.3328 51.989C21.0035 51.836 20.6444 51.761 20.2825 51.7697Z" fill="#231815"/>
<path d="M35.5671 52.3932C35.1263 52.0594 34.5949 51.8727 34.0458 51.8586C33.6207 51.8673 33.2034 51.9768 32.8271 52.1786C32.4508 52.3803 32.1258 52.6687 31.8781 53.0208C31.2555 53.8143 30.9282 54.8063 30.954 55.8217V63.4924H28.6113V50.1075H30.9426V52.2421C31.7945 50.6538 33.0621 49.8583 34.7456 49.8557C35.3516 49.8795 35.9545 49.9547 36.5482 50.0804L35.5671 52.3932Z" fill="#231815"/>
<path d="M37.3315 56.7673C37.3315 54.7011 37.8779 53.0327 38.9706 51.762C39.5044 51.1368 40.1688 50.6411 40.915 50.3113C41.6612 49.9815 42.4704 49.8259 43.2833 49.8559C45.162 49.8559 46.6211 50.4668 47.6605 51.6884C48.7 52.91 49.2198 54.603 49.2198 56.7673C49.2198 58.9238 48.6886 60.6258 47.6263 61.8733C46.564 63.1207 45.1163 63.7431 43.2833 63.7405C41.4071 63.7405 39.9468 63.1117 38.9022 61.8539C37.8576 60.5961 37.3341 58.9006 37.3315 56.7673ZM39.7883 56.7673C39.7883 60.1248 40.9533 61.8035 43.2833 61.8035C43.7868 61.8201 44.2862 61.7048 44.7336 61.4688C45.181 61.2328 45.5616 60.8838 45.8389 60.4553C46.4651 59.554 46.7782 58.3246 46.7782 56.7673C46.7782 53.4511 45.6171 51.793 43.2947 51.793C42.7921 51.78 42.2944 51.8964 41.8477 52.1314C41.401 52.3664 41.0197 52.7123 40.739 53.1373C40.1052 54.0076 39.7883 55.2176 39.7883 56.7673Z" fill="#231815"/>
<path d="M53.8783 50.1077V58.6306C53.8783 60.6967 54.7581 61.7298 56.5176 61.7298C57.2735 61.7343 58.0117 61.4972 58.6283 61.0519C59.1998 60.6847 59.6419 60.1421 59.8909 59.5022V50.1077H62.2222V63.4886H59.8909V61.6601C59.5181 62.2904 58.9684 62.7924 58.3127 63.1012C57.6101 63.5157 56.8159 63.7422 56.0042 63.7598C54.5616 63.7598 53.4587 63.3388 52.6956 62.4969C51.9325 61.6549 51.5522 60.4591 51.5547 58.9095V50.1077H53.8783Z" fill="#231815"/>
<path d="M67.7291 62.7527V68.7381H65.4131V50.1078H67.7443V51.2003C68.1588 50.7636 68.6568 50.4183 69.2076 50.1857C69.7585 49.9531 70.3503 49.8383 70.9465 49.8483C72.81 49.8483 74.2614 50.4397 75.3009 51.6226C76.3404 52.8054 76.8589 54.5384 76.8564 56.8215C76.8564 58.8567 76.3341 60.5161 75.2895 61.7997C74.245 63.0833 72.7314 63.729 70.7487 63.7367C70.1426 63.7282 69.5413 63.6263 68.9651 63.4345C68.494 63.3424 68.0623 63.1043 67.7291 62.7527ZM67.7291 52.994V60.7886C67.9748 61.0881 68.2974 61.3121 68.6609 61.4355C69.099 61.6305 69.5709 61.7345 70.049 61.7416C72.9443 61.7416 74.3907 60.0757 74.3882 56.7441C74.3882 55.0498 74.0447 53.8127 73.3576 53.0327C72.673 52.2579 71.5702 51.8705 70.0604 51.8705C69.6396 51.896 69.2294 52.015 68.8586 52.2192C68.4408 52.4087 68.0586 52.6709 67.7291 52.994Z" fill="#231815"/>
</g>
<defs>
<clipPath id="clip0_874:12417">
<rect width="92" height="92" fill="white"/>
</clipPath>
</defs>
</svg>
