<svg width="92" height="92" viewBox="0 0 92 92" fill="none" xmlns="http://www.w3.org/2000/svg">
<path d="M73.3546 77.7197H18.6992V25.5186H22.3003V74.1252H69.7534V25.5186H73.3546V77.7197Z" fill="#FF6B00"/>
<path d="M68.6844 14.3121L21.7236 21.9854L22.3033 25.5327L69.264 17.8594L68.6844 14.3121Z" fill="#FF6B00"/>
<path d="M29.1446 38.8863H35.0829V35.6831H30.7361C30.4391 36.383 30.0892 37.0592 29.6896 37.706L27.3223 36.5826C27.9107 35.5159 28.2083 34.9475 28.4725 34.3724C29.0967 32.9828 29.5925 31.539 29.9537 30.0591L32.408 30.5974C32.2241 31.4668 31.7024 32.8343 31.5988 33.162H35.0829V29.8184H37.7578V33.162H43.6761V35.6831H37.7578V38.8863H43.0207V41.4108H37.7578V44.9618H44.4016V47.4662H27.4259V44.9618H35.0829V41.4108H29.1446V38.8863Z" fill="#FF6B00"/>
<path d="M48.1535 34.9208C49.4207 35.7901 51.0524 36.9871 52.1224 37.8197L50.6211 40.0065C49.4642 39.1037 48.0298 37.9735 46.6455 37.0975L48.1535 34.9208ZM48.1535 30.1561C49.4207 31.0254 51.0524 32.2224 52.1224 33.0517L50.6211 35.2418C49.4642 34.339 48.0298 33.2088 46.6455 32.3328L48.1535 30.1561ZM46.7625 46.6637C47.9866 44.7308 49.0181 42.6825 49.842 40.5481L52.2729 41.4777C51.4207 43.6919 50.3581 45.8192 49.0997 47.8306L46.7625 46.6637ZM53.1757 31.0722C55.5764 31.099 62.1768 30.1427 63.4808 29.8618V32.4264C62.3473 32.6404 60.9028 32.9213 59.6891 33.0951V35.2217H64.7949V37.7461H59.6891V39.6955H63.8386V47.7738H52.9717V39.7022H57.1045V37.7528H52.3598V35.2284H57.1045V33.2991C55.5229 33.3894 54.0952 33.4496 53.2191 33.4763L53.1757 31.0722ZM55.5764 45.2593H61.1636V42.25H55.5764V45.2593Z" fill="#FF6B00"/>
<path d="M36.4206 51.248L36.9355 53.3545H44.2648V55.7386H36.9355V57.5107H43.1413V65.3917C43.1413 66.9532 42.0546 67.7657 41.1786 67.7657C40.3026 67.7657 39.5068 67.7657 39.0989 67.7657V65.2546H40.2357C40.6704 65.2546 40.6804 64.8667 40.6804 64.2716V59.8981H36.9355V69.6682H34.3542V59.8981H30.7832V67.8259H28.3356V57.5107H34.3542V55.7386H27.0918V53.3545H34.3542L33.856 51.248H36.4206Z" fill="#FF6B00"/>
<path d="M47.8857 67.3477C49.6321 66.952 51.2795 66.2046 52.7273 65.1509H47.8857V63.1447H55.2417V62.2252H48.8219V57.4605L47.9158 58.3867L46.0166 56.8252C46.9427 55.998 47.7962 55.0931 48.5678 54.1202C49.2741 53.1861 49.8888 52.1862 50.4035 51.1343L52.6136 52.0605L52.0419 53.1237H55.2417L54.7536 51.2346H57.3482L57.8163 53.1237H63.5607V54.7956H57.8197V55.5479H63.5641V57.2197H57.8197V57.972H63.5641V59.6439H57.8197V60.4698H63.5641V62.2352H57.7963V63.1447H64.6842V65.1509H60.3107C60.7186 65.6725 62.9522 66.9932 64.5538 67.3543L63.8015 69.5244C61.7752 69.2402 58.6121 67.0701 57.8163 65.5989V69.6648H55.2417V65.5922C53.5465 67.6854 50.5372 69.0329 48.6648 69.5311L47.8857 67.3477ZM51.3999 55.5646H55.235V54.8123H51.3999V55.5646ZM51.3999 57.9821H55.235V57.2298H51.3999V57.9821ZM51.3999 60.4631H55.235V59.6506H51.3999V60.4631Z" fill="#FF6B00"/>
</svg>
